<?xml version="1.0" encoding="utf-8"?>
<!-- Generator: Adobe Illustrator 28.0.0, SVG Export Plug-In . SVG Version: 6.00 Build 0)  -->
<svg version="1.1" id="Capa_2_00000160879599477967833060000006791280980606505358_"
	 xmlns="http://www.w3.org/2000/svg" xmlns:xlink="http://www.w3.org/1999/xlink" x="0px" y="0px" viewBox="0 0 236.9 251.5"
	 style="enable-background:new 0 0 236.9 251.5;" xml:space="preserve">
<style type="text/css">
	.st0{fill:#FFFFFF;}
</style>
<g id="Capa_1-2">
	<g>
		<path class="st0" d="M113.1,48.3h-2v2l3.3-0.7C114.4,48.7,113.9,48.3,113.1,48.3z"/>
		<path class="st0" d="M159.8,57.1l-0.7-1.3c-0.9,0.4-1.5,0.7-2,0.7v1.3h2.6V57.1z"/>
		<rect x="118.5" y="55.8" class="st0" width="1.4" height="2"/>
		<path class="st0" d="M123.2,109.8h0.7v-0.7c0-0.9-0.4-1.3-1.3-1.3h-0.7v0.7C122,109.4,122.5,109.8,123.2,109.8z"/>
		<path class="st0" d="M112.4,105.1v3.4h0.7c0.9-0.4,1.6-0.7,2.1-0.7v-0.7C115.2,106.4,114.2,105.7,112.4,105.1z"/>
		<rect x="122.5" y="49.6" class="st0" width="2.1" height="2.1"/>
		<path class="st0" d="M142.1,54.3v-0.7h-1.3v2.1C141.7,55.8,142.1,55.3,142.1,54.3z"/>
		<path class="st0" d="M150.9,55h-1.3v1.4C150.5,56.4,150.9,56,150.9,55z"/>
		<rect x="139.5" y="84.8" class="st0" width="1.3" height="1.3"/>
		<rect x="101.6" y="61.8" class="st0" width="2" height="0.7"/>
		<path class="st0" d="M138.2,133.5c0-0.7-0.7-1.3-2.1-2h-2.8c0,3.6,1.6,5.4,4.8,5.4c0,1.8,0.4,2.8,1.3,2.8h0.7c1.3,0,2-0.9,2-2.8
			C142.1,136.2,140.8,135.1,138.2,133.5z"/>
		<path class="st0" d="M150.9,132.2h-0.7v1.3c0,1,0.2,1.9,0.7,2.8c-0.4,0.8-0.7,1.7-0.7,2.6c0,0.5,0.2,1.2,0.7,2.1
			c-0.4,0.8-0.7,1.7-0.7,2.8l0.7,1.3c-0.9,1.5-1.3,2.8-1.3,4.1v0.7c0.1,0.9,0.6,1.3,1.3,1.3c0.9-0.4,1.6-0.7,2.1-0.7v-2l-0.7-4.1
			l2-3.4C153.3,135.1,152.2,132.2,150.9,132.2L150.9,132.2z"/>
		<path class="st0" d="M165.8,182.9c-0.8,0.4-1.5,0.7-2,0.7v1.3h1.3c0.9,0,1.4-0.4,1.4-1.3C166.1,183.6,165.8,183.4,165.8,182.9z"/>
		<path class="st0" d="M122.5,112.6h-0.7c-0.7,0-1.7,0.9-2.8,2.6v2.1h0.8c0.9,0,1.8-0.2,2.6-0.7c0.8,0.4,1.7,0.7,2.8,0.7v-2.1
			C123.4,115.2,122.5,114.3,122.5,112.6z"/>
		<path class="st0" d="M235.4,46.8c-7.3-4.6-14.5-9.3-21.8-13.9c-10.8-6.9-21.5-14.1-32.6-20.6c-3.2-1.9-6.8-3.1-10.2-4.2
			c-8.1-2.4-16-5.3-24.2-7.1c-1.1-0.2-2.3-0.3-3.4-0.3c-2.2,0.1-4.2,0.6-6.4-0.5c-1.6-0.8-3.4,0.4-5.1,0.9
			c-5.4,1.8-10.8,2.7-16.2,2.9c-5.4,0.4-10.8,0-16.4-1.1c-1.7-0.3-3.7-1.3-5.1-0.3C92,4,89.9,3.7,87.7,3.8c-1.1,0.1-2.2,0.3-3.3,0.6
			c-7.9,2.7-15.5,6.5-23.3,9.8c-3.4,1.4-6.7,3-9.7,5.3c-10.2,7.7-20,16.1-30,24.2C14.7,49.1,8,54.5,1.3,60c-1.5,1.2-1.7,2.3-0.3,4.1
			c7.8,10.5,15.1,21.5,22,32.8c1.8,3,4,5.7,6.4,8.2c1.1,1.1,2.4,1.7,3.8,1c5.9-2.6,12-5.1,13.8-13.5c1.3,1.8,1.4,3.3,1.4,4.8
			c-0.4,9.9,0.3,19.7,0.6,29.6c0.1,5.1,0.9,10.2,0.9,15.3c0,6-0.1,11.9,0.5,17.9c1,9.3,1.9,18.6,3,28c1.3,11,1.2,22.1,1.2,33.1
			c0,5.9,0,11.8-1.6,17.4c-1,3.6-1.1,7-0.2,10.7c0.5,1.8,1.1,2.5,2.7,2.1c8.3-1.6,16.8-1.1,25.1-2.3c9.5-1.3,19.1-0.8,28.6-1.8
			c2.2-0.2,4.4-0.2,6.6-0.1c4.5,0.2,9,0.2,13.6,0c4.5-0.4,9-0.8,13.5-1.6c2.2-0.4,4.4-0.6,6.6-0.6c9.6-0.1,19.1-1.7,28.6-1.4
			c8.4,0.2,16.8-1.2,25.2-0.6c1.6,0.1,2.1-0.6,2.4-2.4c0.6-3.8,0-7.1-1.4-10.6c-2.1-5.4-2.9-11.3-3.5-17.1c-1.2-11-2.6-22-2.5-33.1
			c0.1-9.4-0.1-18.8-0.1-28.1c0-6-0.8-11.9-1.5-17.8c-0.6-5.1-0.4-10.2-0.9-15.3c-0.9-9.8-1.2-19.7-2.7-29.5c-0.2-1.5-0.2-3.1,0.8-5
			c2.7,8.2,9,10,15.2,11.9c1.5,0.5,2.7-0.2,3.6-1.5c2.1-2.7,3.9-5.7,5.4-8.8c5.6-12,11.6-23.7,18.2-35
			C237.4,48.9,237.1,47.8,235.4,46.8L235.4,46.8z M173.3,147.1v14.2c0,1.9-0.2,3.7-0.7,5.4c0.4,1.8,0.7,3.6,0.7,5.5v6.7
			c0,2.4-0.9,4-2.8,4.7l1.4,2.8c-3.4,10.4-13.8,15.5-31.2,15.5h-33.1c-1-0.7-3.7-1.6-8.2-2.8l-4.7,0.8c-1.8-3.5-2.6-5.8-2.6-6.8
			c-0.6,0-2.2,1.6-4.7,4.7c-8.2-2.9-12.2-12.8-12.2-29.7v-17.6c0-9,2-13.5,6.1-13.5h31.8c2.7,1.4,4.1,3.9,4.1,7.5v18.9
			c0,7.6,2.2,11.4,6.7,11.4h0.8c4.5,0,6.7-3.8,6.7-11.4v-14.2c0-8.2-2.5-13.4-7.5-15.6c-10.8-3.9-16.2-7.1-16.2-9.5l-1.3,0.7
			c-9.4-1.8-18.4-6.9-27.1-15.5c-2.7-6.5-4.1-13.7-4.1-21.7c1.7-11.2,3.3-16.8,4.7-16.8l-2-2.8v-2c1.5-1.2,2.6-5.2,3.3-12.2
			c3.7-4.4,7.1-6.9,10.1-7.4l4.1,0.7h0.8c1.6,0,3.4-0.9,5.4-2.8h5.4c1.2,0,2.6,0.4,4.1,1.3c2.2-1.3,4-2,5.4-2h16.9
			c18.8,0,30.1,3.2,33.9,9.5c2.2,4.6,3.3,10.1,3.3,16.3v1.3l-4.7,4.1c3.2,0.7,4.7,1.6,4.7,2.6v2.1l-4,2.6v0.7l3.3-0.7l0.7,1.4v2
			c0,6.8-2.2,10.1-6.7,10.1c-1.8,0-3.6-0.2-5.4-0.7c-6.1,0.4-11.3,0.7-15.5,0.7h-5.5c-3.6-0.3-5.4-1.9-5.4-4.7
			c0.9-6.8,2.5-11.1,4.7-12.9c-2.7,0-4.1-2.7-4.1-8c1.1-0.7,2.9-1.4,5.5-2.1c-0.9-2.2-2.7-3.3-5.5-3.3c-0.9,0-1.8,0.2-2.6,0.7
			l-1.4-0.7c-9.5,0-14.2,4.7-14.2,14.2c0,1.8-1.3,3.8-4,6.1v2l0.7,1.4c0.8,0,1.9-1.4,3.3-4.1h0.8c1.3,3.8,3.6,8.6,6.7,14.2h2
			c9.5,2.9,14.3,5.7,14.3,8.2c-0.9,2.9-1.4,4.7-1.4,5.4c0.2,0,0.9,0.4,2.1,1.3c0-2.6,1.1-4.4,3.3-5.4c12.8,3.4,22.1,8.8,27.8,16.2
			c2.3,4,3.4,9.6,3.4,17c0,0.9-0.2,1.3-0.7,1.3L173.3,147.1L173.3,147.1z"/>
		<path class="st0" d="M94.1,186.4c0.4,0.9,0.7,1.5,0.7,2h1.4c0.9,0,1.3-0.4,1.3-1.3v-1.3c-1.6-0.5-2.5-0.8-2.8-0.8L94.1,186.4
			L94.1,186.4z"/>
		<path class="st0" d="M108.3,190.4c-0.9,0.4-1.5,0.7-2,0.7v2.6c0.2,1,0.6,1.4,1.3,1.4h0.7c0-0.4,0.2-1.7,0.7-4.1
			C108.6,191.1,108.3,190.9,108.3,190.4L108.3,190.4z"/>
		<path class="st0" d="M111.1,185.7h-1.4v2c0.2,0.9,0.6,1.3,1.4,1.3c0.9,0,1.3-0.4,1.3-1.3V187C112.4,186.1,112,185.7,111.1,185.7
			L111.1,185.7z"/>
	</g>
</g>
</svg>
