<?xml version="1.0" encoding="utf-8"?>
<!-- Generator: Adobe Illustrator 28.0.0, SVG Export Plug-In . SVG Version: 6.00 Build 0)  -->
<svg version="1.1" id="Capa_2_00000163040792739606348650000005127711213211565739_"
	 xmlns="http://www.w3.org/2000/svg" xmlns:xlink="http://www.w3.org/1999/xlink" x="0px" y="0px" viewBox="0 0 737 227.7"
	 style="enable-background:new 0 0 737 227.7;" xml:space="preserve">
<style type="text/css">
	.st0{fill:#FFFFFF;}
	.st1{enable-background:new    ;}
</style>
<g id="Capa_1-2">
	<g>
		<path class="st0" d="M57,4.6h23.3c25.9,0,41.5,4.4,46.8,13.1c3,6.4,4.6,13.9,4.6,22.5V42l-6.5,5.6c4.4,1,6.5,2.2,6.5,3.7v2.9
			l-5.5,3.7v0.9l4.6-0.9l0.9,2v2.7c0,9.3-3.1,14-9.3,14c-2.5,0-5-0.3-7.4-0.9c-8.4,0.6-15.6,0.9-21.4,0.9h-7.6
			c-5-0.4-7.4-2.6-7.4-6.5c1.3-9.4,3.5-15.4,6.5-17.8c-3.8,0-5.6-3.7-5.6-11.1c1.5-1,4.1-2,7.6-2.9c-1.2-3-3.8-4.6-7.6-4.6
			c-1.3,0-2.5,0.3-3.7,0.9l-2-0.9c-13.1,0-19.6,6.5-19.6,19.6c0,2.4-1.8,5.2-5.5,8.4v2.7l0.9,2c1.1,0,2.6-1.9,4.6-5.6h1.1
			c1.8,5.3,4.9,11.8,9.3,19.6h2.7c13.2,4.1,19.8,7.8,19.8,11.2c-1.3,3.9-2,6.4-2,7.4c0.3,0,1.3,0.6,2.9,1.8c0-3.6,1.5-6,4.6-7.4
			c17.7,4.7,30.5,12.1,38.3,22.3c3.1,5.5,4.7,13.3,4.7,23.4c0,1.2-0.3,1.8-0.9,1.8l0.9,6.5v19.6c0,2.6-0.3,5.1-0.9,7.4
			c0.6,2.4,0.9,5,0.9,7.6v9.3c0,3.3-1.3,5.5-3.8,6.5l2,3.8c-4.8,14.3-19.1,21.4-43,21.4H44.8c-1.4-0.9-5.2-2.2-11.2-3.8l-6.5,1.1
			c-2.4-4.9-3.6-8-3.6-9.4c-0.8,0-3,2.2-6.5,6.5C5.6,213.6,0,199.9,0,176.5v-24.3c0-12.5,2.8-18.7,8.4-18.7h43.9
			c3.8,1.9,5.6,5.4,5.6,10.3v26.1c0,10.5,3.1,15.8,9.3,15.8h1.1c6.2,0,9.3-5.3,9.3-15.8v-19.6c0-11.4-3.4-18.5-10.3-21.6
			c-14.9-5.4-22.3-9.7-22.3-13.1l-1.8,0.9c-13-2.4-25.4-9.6-37.4-21.4C1.9,86.3,0,76.3,0,65.2C2.3,49.7,4.5,42,6.5,42l-2.7-3.8v-2.7
			c2-1.6,3.5-7.2,4.6-16.9c5.1-6.1,9.7-9.5,14-10.2L28,9.3H29c2.2,0,4.7-1.3,7.5-3.8h7.4c1.7,0,3.6,0.6,5.6,1.8
			C52.6,5.5,55.1,4.6,57,4.6L57,4.6z M27.1,199.7l-0.9,2c0.6,1.2,0.9,2.1,0.9,2.7h2c1.2,0,1.8-0.6,1.8-1.8v-1.8
			C28.6,200.1,27.4,199.7,27.1,199.7L27.1,199.7z M36.5,29.8v0.9h2.7v-0.9H36.5z M43,208.2v3.6c0.2,1.3,0.8,2,1.8,2h0.9
			c0-0.5,0.3-2.4,0.9-5.6c-0.6,0-0.9-0.3-0.9-0.9C44.5,207.9,43.6,208.2,43,208.2L43,208.2z M47.6,200.8v2.7c0.2,1.2,0.9,1.8,2,1.8
			c1.2,0,1.8-0.6,1.8-1.8v-0.9c0-1.2-0.6-1.8-1.8-1.8L47.6,200.8L47.6,200.8z M49.5,11.1v2.7l4.6-0.9c0-1.2-0.6-1.8-1.8-1.8
			L49.5,11.1L49.5,11.1z M51.4,89.6v4.7h0.9c1.2-0.6,2.2-0.9,2.9-0.9v-0.9C55.2,91.4,53.9,90.5,51.4,89.6z M59.7,21.5v2.7h2v-2.7
			H59.7z M60.6,103.5v2.9h1.1c1.3,0,2.5-0.3,3.7-0.9c1.1,0.6,2.4,0.9,3.8,0.9v-2.9c-2.5,0-3.8-1.2-3.8-3.7h-0.9
			C63.4,99.9,62.2,101.1,60.6,103.5z M64.4,93.4v0.9c0.2,1.2,0.8,1.8,1.8,1.8h0.9v-0.9c0-1.2-0.6-1.8-1.8-1.8H64.4z M65.3,13v2.9
			h2.9V13H65.3z M80.2,126c0,5,2.2,7.4,6.7,7.4c0,2.5,0.6,3.8,1.8,3.8h0.9c1.8,0,2.7-1.3,2.7-3.8c0-0.9-1.8-2.5-5.5-4.7
			c0-0.9-1-1.8-2.9-2.7C84,126,80.2,126,80.2,126z M88.7,61.6v1.8h1.8v-1.8H88.7z M90.6,18.6v2.9c1.2,0,1.8-0.7,1.8-2v-0.9H90.6z
			 M102.7,20.4v2c1.2,0,1.8-0.7,1.8-2H102.7z M103.6,126.9v1.8c0,1.4,0.3,2.7,0.9,3.8c-0.6,1.1-0.9,2.3-0.9,3.6
			c0,0.7,0.3,1.7,0.9,2.9c-0.6,1.1-0.9,2.4-0.9,3.8l0.9,1.8c-1.2,2-1.8,3.9-1.8,5.6v0.9c0.2,1.2,0.8,1.8,1.8,1.8
			c1.2-0.6,2.2-0.9,2.9-0.9v-2.7l-0.9-5.6l2.7-4.7c-1.4-8.1-3-12.2-4.7-12.2L103.6,126.9L103.6,126.9z M113.1,22.4v1.8h3.7v-0.9
			l-0.9-1.8C114.6,22.1,113.7,22.4,113.1,22.4z M122.3,197.9v1.8h1.8c1.3,0,2-0.6,2-1.8c-0.7,0-1.1-0.3-1.1-0.9
			C123.9,197.6,123,197.9,122.3,197.9z"/>
		<g>
			<g>
				<path class="st0" d="M376.9,112.9v1.2c0,6.3-1.9,9.4-5.8,9.4c-4.2-0.6-6.3-3.2-6.3-7.8v-11.6c-0.5-0.6-1-2-1.4-4.2l-28.8-27.6
					c0,0-0.1-0.1-0.1-0.1l-4.9-4.7c0,0,0,0.1,0,0.1c0,0.8,0.2,1.6,0.6,2.2l-0.6,1.2c0,2.6,0.2,4,0.6,4.4c-0.4,2.5-0.6,4.5-0.6,6.1
					v42.6l0.6,2.8c-0.4,0-0.6,0.4-0.6,1.1c0,2.5,0.6,4.7,1.8,6.6c4.2,6.7,9,10,14.4,10c0.8-0.4,1.3-0.6,1.8-0.6
					c1.2,0.8,2.4,1.2,3.5,1.2h16.1l5.7,0.5c0-0.4,0.6-0.7,1.8-1.1l3.5,0.5h2.3l2.9-0.5c0,0.4,0.2,0.5,0.6,0.5c0.5,0,1.6-0.6,3.5-1.7
					c0,0.8,1.3,1.2,4,1.2h3.5c2.3,0,3.5-0.8,3.5-2.2l1.2,0.5h1.7c1.8-0.7,3.3-1.5,4.5-2.4L376.9,112.9L376.9,112.9z M336.5,119.1
					h1.2v1.2h-1.2V119.1z M337.7,136.8h-0.6v-1.6h0.6l1.1,0.5C338.9,136.4,338.5,136.8,337.7,136.8z M351.5,129.6
					c-0.7,0-1.1-0.4-1.2-1.2v-1.1h1.2V129.6L351.5,129.6z M352.1,115.8H351c-1.2-0.5-1.8-1.1-1.8-1.6v-0.5c0-1,0.4-2.1,1.1-3.3
					c1.7,0.8,2.6,1.7,2.9,2.7C353.2,113.3,352.8,114.2,352.1,115.8L352.1,115.8z M358.4,120.2c-0.6,0-1.4,0.4-2.3,1.1l1.2,1.7v0.5
					c0,0.7-0.4,1.1-1.2,1.1h-2.2v-4.9c0-0.7,0.4-1,1.1-1.2h3.5L358.4,120.2L358.4,120.2z M368.2,140.6h-2.3c0-0.5-0.6-1.6-1.7-3.3
					h0.6l6.3-3.3c0.2,0,1,0.2,2.3,0.5C369.9,137.6,368.2,139.6,368.2,140.6L368.2,140.6z M388.9,137.3c0,0.8-0.4,1.2-1.1,1.2h-1.1
					c-1.9-1.4-2.9-2.3-2.9-2.8c0.6-1.1,1.2-1.7,1.7-1.7h1.8c1.1,0.6,1.7,1.2,1.7,1.7L388.9,137.3L388.9,137.3z M388.9,126.9h-1.1
					v-0.5h1.1V126.9z M393.6,132.9h-1.8c-0.6,0-1-0.4-1.1-1.1v-2.2c0.4,0,1-0.2,1.8-0.5c0.8,1.6,1.1,2.7,1.1,3.3V132.9z"/>
				<path class="st0" d="M417.5,43.1c0-4.4-1-6.6-2.9-6.6l1.1-2.1c-0.8-3.7-1.9-5.6-3.5-5.6c0-0.2,0.8-1.2,2.3-2.8v-0.5
					c0-1.1-0.8-3.2-2.3-6.1c-2.4-5.6-11.4-8.3-27-8.3h-18.5c-8.1,0-12.1,0.6-12.1,1.7l-2.9-0.6c-0.9,0-2.5,0.2-4.6,0.6
					c-6.9,3.5-10.3,8.4-10.3,14.9v1.7l0.6,2.8c-0.9,0-1.6,1.9-2.3,5.5c0,0.2,0.2,0.9,0.6,2.2c-0.8,1.5-1.1,2.8-1.1,3.9
					c0,1.6,0.2,4,0.6,7.2l-0.6,1.1l0.6,1.2c0,0.8-0.2,1.5-0.6,2.2l0.6,1.2c-0.2,1.7-0.4,3.1-0.5,4.4l5.8,5.5h0.5v0.5L368,93
					c0-0.4-0.1-0.8-0.1-1.2c0.8,0,1.2-0.4,1.2-1.1v-0.5l-1.8-2.2c1.5,0,2.3-0.4,2.3-1.1v-2.8c0-0.8-0.2-1.6-0.6-2.2
					c0.4-0.7,0.6-1.4,0.6-2.2V69.2c0-0.7-0.4-1-1.1-1.2l1.1-3.8V42.6c0-1.8-0.2-4.6-0.6-8.2c0-2.9,1.9-4.7,5.8-5.6h1.7
					c1.9,0,3.7,1.1,5.2,3.3c0,3.3,1.5,4.9,4.6,4.9v1.2c-1.9,0-3.5,1.3-4.6,3.8c0,0.8,0.2,1.6,0.6,2.2c-0.4,3.1-0.6,5.7-0.6,7.7v12.7
					l0.6,5.6c-0.4,0-0.6,0.4-0.6,1.2c0,0.6,0.4,1.5,1.1,2.7c-0.8,1.2-1.1,2.4-1.1,3.4c0,0.7,0.4,1.1,1.1,1.1h1.8
					c0.8,0,1.1-0.4,1.1-1.1c0.9,0,2.7,1.5,5.2,4.4l-0.6,1.1c-0.8,0-1.5-0.2-2.2-0.5c-0.7,0-1.1,0.4-1.2,1.2l0.6,2.7h-0.6l-3.5-2.7
					h-0.6c-0.6,0-1,0.4-1.1,1.1v5.6c0,1,0.4,2.1,1.1,3.3c-0.6,0-1,0.4-1.1,1.1v2.2c0.6,1.1,1.1,1.6,1.7,1.6c0,2-0.6,3.5-1.7,4.5v3.3
					l29.5,28.4c1.8-1.7,2.7-3.8,2.7-6.2c2.3,0,3.5-5.5,3.5-16.6V96.3l-0.6-2.8c0.4,0,0.6-0.6,0.6-1.7v-9.9c0-0.8-0.2-1.6-0.6-2.2
					c0.4-0.7,0.6-1.4,0.6-2.2V48.1l-0.6-3.8C417.3,44.3,417.5,43.9,417.5,43.1L417.5,43.1z M346.1,25.5h-1.2l0.6-2.8h1.8
					c0,0.4,0.2,0.9,0.6,1.6L346.1,25.5L346.1,25.5z M358.1,45.4h-1.7c0-0.4-0.2-0.9-0.6-1.6c0-0.7,0.4-1,1.1-1.2
					c0.8,0,1.1,0.4,1.1,1.2V45.4z M363.3,86.3l-0.6,1.2c-1.2-0.6-1.8-1.2-1.8-1.7v-1.1h1.2c0.8,0,1.1,0.4,1.1,1.1
					C363.3,85.8,363.3,86.3,363.3,86.3z M386.3,94.1h-1.1l-1.2-0.5c0.8-1.7,1.5-2.6,2.3-2.8h0.6C386.5,92.7,386.3,93.8,386.3,94.1
					L386.3,94.1z M402.5,124.5c-0.6,0-1-0.4-1.1-1.2v-0.5h1.1C402.5,122.8,402.5,124.5,402.5,124.5z M403,109.6
					c-3.8-0.7-5.7-1.6-5.7-2.8c0-1.1,0.6-2.5,1.7-4.4l1.1,0.5l-0.6,1.1c2,1.4,3.4,3.1,4.1,5C403.2,109.1,403,109.2,403,109.6
					L403,109.6z M404.2,71.5h-0.6v-1.2h0.6V71.5z M405.9,93.6c-0.6,0-1-0.4-1.1-1.2h1.1V93.6z M411.1,124.6H410l-2.3-1.7l0.6-1.1
					c1.9,0.2,2.9,0.8,2.9,1.6L411.1,124.6L411.1,124.6z M410.6,61.4c0-0.4-0.2-0.9-0.6-1.6v-0.5c0.8,0,1.5,0.2,2.2,0.5l1.2-0.5h0.6
					v0.5c-0.6,1.1-1.2,1.6-1.8,1.6H410.6z M413.5,81.4l-1.8-1.2c0-0.6,0.4-0.9,1.1-1.1h1.2v2.2L413.5,81.4L413.5,81.4z M415.1,122.3
					H414v-1.1h1.1V122.3z M415.1,93.6L414,93c0-0.7,0.4-1,1.1-1.2l1.1,0.5C416.3,93.2,415.9,93.6,415.1,93.6z"/>
				<path class="st0" d="M319.5,97.3h-2.9L316,94c2.7-0.5,4-1,4-1.6v-2.2c0-5.8-1.7-10.5-5.2-13.9c-3.9-2.9-5.8-5.3-5.8-7.2
					s1.5-4.2,4.7-7.2v-1.7l-0.6-1.1h0.6c2.7-1.5,4-4.3,4-8.3v-3.1l-37.1-35.7c-1,0-2.1,0-3.2,0h-31.1c-4.6,0-6.9,2.2-6.9,6.6v38.2
					l0.6,3.8c-1.1,0-2,3.5-2.9,10.6v38.8l0.6,2.8c-0.4,0-0.6,0.5-0.6,1.6v8.3c0,1.3,0.2,3,0.6,5c-0.4,0.5-0.6,1.8-0.6,3.8v1.1
					l0.6,1.2c0.4,0,1-0.2,1.8-0.5c0.2,0,1.4,0.2,3.4,0.5v1.6c-1.1,0-2,0.9-2.9,2.8v0.5c0.3,1.1,1.5,1.7,3.4,1.7h36.3
					c9.9,0,16.1-0.6,18.5-1.7c0,0.4,0.6,0.8,1.7,1.2c0.6,0,2.7-0.4,6.3-1.2c9.3-3.5,13.9-9,13.9-16.6l-0.6-1.2
					c0.8,0,1.1-2.7,1.1-8.2V98.5C320.6,97.8,320.2,97.5,319.5,97.3L319.5,97.3z M246.8,64.6c0.8,0,1.2,0.4,1.2,1.2v2.8h-1.8
					c0-0.4-0.2-1-0.6-1.7C245.7,66.3,246,65.6,246.8,64.6z M241.6,64.6l1.8,1.2c0,0.7-0.4,2.1-1.1,4.4c-0.9,0-1.5-1.5-1.8-4.4
					C240.5,65.1,240.8,64.8,241.6,64.6z M239.9,75.7c1.6-2.2,2.5-3.3,2.9-3.3h4v2.2l0.6,2.8l-2.9,1.6
					C242.2,79.1,240.7,78,239.9,75.7L239.9,75.7z M250.2,135.5c-2.3-0.5-3.4-2.5-3.4-6.1h1.2l1.7,1.2c1.6,0,2.3,1.5,2.3,4.4
					C251.6,135,251,135.2,250.2,135.5z M258.9,102.9h-1.1v-1.1h1.1V102.9z M258.9,97.9c-0.6,0-1-0.4-1.1-1.2h1.1V97.9z M261.2,87.4
					h-0.6c-0.7,0-1.1-0.4-1.2-1.1h1.8V87.4z M280.2,126.7c-0.6,0-1-0.4-1.1-1.1c0-0.6,0.4-0.9,1.1-1.1h0.6
					C280.8,124.7,280.6,125.5,280.2,126.7L280.2,126.7z M283.7,115.1c0,0.8-1.7,2.7-5.2,5.6l-5.1-3.8c-0.8-4.5-1.8-7.3-2.9-8.3
					c1.1,0,1.7-0.4,1.7-1.1v-20c1.6-2.9,3.5-4.4,5.8-4.4c4.6,0,6.9,4.6,6.9,13.8c-0.4,0.7-0.6,1.6-0.6,2.8v7.2c0,1,0.4,2.1,1.2,3.3
					c-0.7,0-1.1,0.4-1.2,1.1v1.2c0,1.1,0.8,1.6,2.3,1.6C286.6,114.7,285.6,115,283.7,115.1L283.7,115.1z M280.2,68.6v-1.7
					c0.8,0.4,1.3,0.5,1.8,0.5v1.2H280.2z M288.9,70.8c-0.7,0-1.6,0.4-2.9,1.1h-0.6c0-0.7,1-1.2,2.9-1.7h0.6V70.8z M284.8,59.2
					l0.6-1.2l-0.6-1.1c-1.5,1.2-3.8,2.3-6.9,3.3c-1.4,0-3.4-0.9-5.8-2.8c-1.4-4.1-2.7-6.1-4-6.1v-0.5l1.8-2.2v-7.8
					c0-7.7,2.3-11.5,6.9-11.5h1.7c5.4,0,8.1,4.2,8.1,12.7c0,3.6-0.2,8.1-0.6,13.2c0,0.4,0.8,1.5,2.3,3.3v3.9h4v1.6H290
					C286.6,62,284.8,60.4,284.8,59.2L284.8,59.2z M290.6,106.2h0.6c0.8,0,1.1,0.4,1.1,1.2v1.1h-1.8V106.2L290.6,106.2z M294.1,121.8
					h-0.6v-1.2h0.6V121.8z M294.7,117.8h-0.6c-1.1-0.5-1.7-1.1-1.7-1.6v-1.2l0.6-1.1c1.2,0.6,1.8,1.2,1.8,1.7V117.8L294.7,117.8z
					 M297.6,101.8l-0.6,1.1c-0.6,0-1-0.4-1.1-1.1c0-0.6,0.4-0.9,1.1-1.1h0.6V101.8z M301.6,90.7h-1.2c-0.6,0-1-0.4-1.1-1.1v-0.5h1.1
					c0.8,0,1.2,0.4,1.2,1.1V90.7z M304.5,40.3h-0.6l-1.2-0.5c0-0.6,0.4-1,1.2-1.1h0.6V40.3z"/>
				<path class="st0" d="M311.8,32c0.6-0.7,2.5-1.5,5.5-2.2v1.7c0,0.7-1.4,1.3-4,2l8,7.7v-9.7c0-1-0.4-2.1-1.1-3.3
					c0.8-1.2,1.1-2.3,1.1-3.3v-0.5c0-3.5-1-6.8-2.9-10c-2-4.4-12.8-6.8-32.5-7.1C285.9,7.1,311.8,32,311.8,32z"/>
				<path class="st0" d="M430.8,21.6c8.1,0,12.1,4.1,12.1,12.3v9.4c0,1.3-0.8,6.1-2.2,14.4v9.5c1,4.4,2.1,6.6,3.5,6.6
					c-2.3,1.4-3.5,2.4-3.5,2.8v12.7l35.4-6.4c0.2-1.1,0.4-2.3,0.4-3.5v-15c0-1.6-0.4-3.1-1.2-4.5c0.4-0.7,0.6-1.4,0.6-2.2
					c-1.2-7-1.8-12-1.8-15v-8.9c0-8.5,4.6-12.8,13.9-12.8c1.8,0,3.3-2.2,4.6-6.6c0-1.1-0.2-1.7-0.6-1.7c0-4.1-2.1-6.1-6.3-6.1h-54.3
					c-4.6,0-6.9,2.2-6.9,6.6v1.2C424.5,19.2,426.6,21.6,430.8,21.6L430.8,21.6z M463.1,69.3c-0.6,0-1-0.4-1.1-1.1v-1.1h0.6
					c0.8,0,1.1,0.4,1.1,1.1L463.1,69.3z M459.1,52.6c2,1.8,3.7,2.8,5.2,2.8h2.9v1.2l-0.6,1.1c-0.7,0-1.8-0.4-3.5-1.1l-3.5,0.5
					c0-1-0.4-2.1-1.1-3.3L459.1,52.6L459.1,52.6z M453.9,68.8c0.6-1.1,1.2-1.6,1.8-1.6h0.6v2.2h-2.3V68.8z M449.3,20.5h1.7v1.1h-1.7
					V20.5z M449.9,53.8c0.6,0,1.1,0.8,1.7,2.2c-0.7,0-1.8,0.4-3.5,1.1c0-0.4-0.2-0.5-0.6-0.5C448.3,54.9,449.1,54,449.9,53.8
					L449.9,53.8z"/>
				<path class="st0" d="M438.4,95.6v9.4l1.1,1.7v0.5l-1.1,1.7v19.4c0.1,4.4,0.4,6.6,1.1,6.6c0,3.7,1.9,5.6,5.8,5.6h22.5
					c4.2,0,6.3-2.9,6.3-8.9V130c0-0.8-0.2-1.6-0.6-2.2c0.4-0.6,0.6-1.3,0.6-2.2v-2.2c0-3-0.2-5.5-0.6-7.2c0.4-2.3,0.6-4.9,0.6-7.8
					v-7.2l-0.6-2.8c0.4,0,0.6-0.6,0.6-1.7v-3.3c0-1.4-0.2-2.8-0.5-4.1L438.4,95.6L438.4,95.6z M451,117.3c0,0.5-1,1.2-2.9,2.2h-0.6
					c-0.7,0-1.1-0.4-1.2-1.1c0.6-1.1,1.2-1.7,1.8-1.7h2.9V117.3L451,117.3z M451,108.3h-2.9v-1.6h1.8c0.8,0,1.1,0.4,1.1,1.1
					L451,108.3L451,108.3z M471.2,116.1c-0.7,0-1.1-0.4-1.2-1.1h1.2V116.1z"/>
				<path class="st0" d="M573.3,139.6c0-0.6,0.4-1.6,1.1-2.8c-4.2-24.9-6.3-38.4-6.3-40.4c0-0.4-1.3-1.3-4-2.8c0-0.7,1-1.2,2.9-1.7
					c-0.8-6.2-1.4-10.4-1.8-12.6l-28.8,5.2c0.5,2.7,0.9,4.1,1.3,4.1l-0.7,2.8c0,1,0.2,2.4,0.7,4.5c-3.5,2.8-5.2,4.8-5.2,6.1h-0.6
					c-2.3-1.2-3.8-3-4.7-5.6c0-3.8,0.1-7.3,0.2-10.3l-29.7,5.3c-5.3,30.8-7.9,47.7-7.9,50.8v2.2l1.8,2.2c7.6,0.4,12.8,0.5,15.5,0.5
					c0.6,0,1.7-0.6,3.5-1.7l2.3,1.7h2.3c4.6,0,6.9-2.2,6.9-6.6v-3.3l-1.1-1.7v-1.1c0.8,0,1.5-0.2,2.2-0.5c0-8.5,2.9-12.7,8.7-12.7
					c5.3,0.7,8,2.5,8,5.5h1.8c0-0.3,0.6-1.9,1.7-4.9c0.7,0,1.3,0.9,1.8,2.8c-1.2,2.6-2.7,3.8-4.6,3.8l0.6,5c0,9.2,2.9,13.8,8.6,13.8
					h18.5c5,0,7.5-1.7,7.5-5C574.8,140.7,574,139.8,573.3,139.6L573.3,139.6z M496.1,127.4h-0.6v-3.3h1.7c0,0.4,0.2,0.9,0.6,1.6
					C497.2,126.9,496.7,127.4,496.1,127.4z M499,112.5l-0.6,1.1l-1.2-0.5c0.4-0.7,0.6-1.2,0.6-1.6h1.2V112.5L499,112.5z
					 M516.3,102.6c0-0.4-0.4-0.5-1.1-0.5v-2.8c-0.9-1.5-1.7-2.2-2.3-2.2c0.5-1.8,1.1-2.8,1.8-2.8l1.1,0.5c0,0.4-0.2,1-0.6,1.7
					c1.6,1.7,2.8,3.4,3.5,4.9C518.6,101.9,517.8,102.2,516.3,102.6L516.3,102.6z M527.2,103.6c-0.6,1.1-1.1,1.7-1.7,1.7h-0.6
					c-0.8,0-1.4-1.5-1.8-4.5c0-0.6,0.4-0.9,1.2-1.1h1.1c1.1,0.3,1.7,1.4,1.7,3.3C527.2,103.1,527.2,103.6,527.2,103.6z M534.1,115.8
					h-0.7l0.7-2.8h0.6c0.8,0,1.1,0.4,1.1,1.1C535.2,115.2,534.6,115.8,534.1,115.8L534.1,115.8z M541,116.9h-0.6v-1.1h0.6V116.9z
					 M547.4,120.8h-1.2v-1.2h1.2V120.8z M550.8,115.3c-0.4,0-1,0.2-1.8,0.5v-2.2h0.6c0.8,0,1.2,0.4,1.2,1.2
					C550.8,114.7,550.8,115.3,550.8,115.3z M558.3,121.9h-1.1c-0.5,0-1.3-1.3-2.3-3.8v-1.2h1.8c0,1.1,0.6,2.6,1.7,4.5V121.9
					L558.3,121.9z M564.1,102c0,0.7-0.4,1.1-1.2,1.1h-1.1c0-0.4-0.2-1-0.6-1.7h2.9V102z"/>
				<path class="st0" d="M530.5,78.2c0.6-10.1,2-15.1,4.4-15.1c0.6,0.1,1.5,0.8,2.9,2.2c0.5,4.8,1,8.6,1.4,11.3l28.8-5.2
					c-0.1-0.4-0.2-0.6-0.2-0.6c0-5.9-1.5-8.9-4.6-8.9v-0.5c1.1,0,1.7-0.4,1.7-1.2c0-1.4-1.2-4.9-3.5-10.5h0.6c-2.7-15.6-4-24.3-4-26
					c-0.9-7.8-3.8-11.6-8.7-11.6h-1.7c-0.9,0-1.7,0.2-2.3,0.5c-0.7-0.4-1.5-0.5-2.3-0.5h-8.6c-1.5,0.8-2.3,1.7-2.3,2.8h-1.1
					l-2.9-2.8h-5.8c-2.5,0-4.8,0.9-6.9,2.8c-1.7,9.2-3.6,15.6-5.8,19.3c-3.4,19.1-6.2,35.5-8.6,49.2L530.5,78.2L530.5,78.2z
					 M551.5,40.5c0.8,0,1.1,0.4,1.1,1.1h-1.1V40.5z M543.5,57.6v3.9h-1.2c-0.6,0-1-0.4-1.1-1.2v-1.1c0.6-1.1,1.1-1.7,1.7-1.7
					L543.5,57.6L543.5,57.6z M541.2,16.1h1.7v2.2l-0.6,1.1c-0.8-0.1-1.6-1-2.3-2.8L541.2,16.1L541.2,16.1z M530.2,30.5v1.1h-1.1
					C529.1,31,529.4,30.6,530.2,30.5z"/>
				<path class="st0" d="M587.4,38.7c-1.7,0-3.2,5-4.7,15v14.7l35.3-6.4v-8.4l-2.9-15c1.7-7.5,4.8-11.2,9.2-11.2s7.2,4.4,8.7,13.3
					c-0.9,1.4-1.5,4.2-1.8,8.3c0,2.3,1.4,3.4,4.1,3.4H647c1.4,0,3.1-0.2,5.2-0.6c0.5,0.4,1.8,0.6,4,0.6h4.7c2.2,0,3.5-0.9,4-2.8
					c-0.8-7.8-1.6-11.7-2.3-11.7l0.7-7.8c0-5.4-0.8-9.2-2.3-11.6c-2-5.6-11.1-8.3-27.2-8.3h-14.4c-6.3,0-11.7,0.4-16.2,1.1
					c0-0.4-0.2-0.5-0.6-0.5c-11.6,1.4-17.3,6.6-17.3,15.6v1.1l0.6,1.2c-0.4,0-0.6,0.2-0.6,0.5v1.7c0,2.6,1.7,5,5.2,7.2v0.6
					L587.4,38.7L587.4,38.7z M586.2,41.5v-0.6h1.2v1.7C586.7,42.6,586.3,42.2,586.2,41.5z M590.3,47.6c0,0.7-0.4,1.1-1.2,1.1h-1.7
					v-1.6h2.9V47.6z M637.7,46.5h2.2v0.6c0,0.7-0.4,1.1-1.1,1.1h-1.1V46.5z M609.9,39.3h0.6v1.1h-0.6V39.3z"/>
				<path class="st0" d="M657.3,78H629c-4.2,0-6.3,2.9-6.3,8.9v2.8c0,1.6,0.2,3,0.6,4.5c3.5,5.7,5.2,10.1,5.2,13.3v4.5
					c0,6.6-1.9,9.9-5.8,9.9c-4.2,0-6.3-4.4-6.3-13.3v-8.9l-0.7-6.6c0.8,0,1.2-0.4,1.2-1.2v-3.3l-0.6-2.8c0.4,0,0.6-0.6,0.6-1.7
					c0-1-0.4-2.1-1.2-3.3l0.7-3.3v-8.8L581,75v11.3c0,1,0.4,2.1,1.1,3.3c-0.8,1.2-1.1,2.4-1.1,3.4v4.4c0,0.7,1.9,1.4,5.8,2.2
					c-0.6,1.5-1.2,2.2-1.8,2.2c-1.5-0.9-2.2-1.6-2.2-2.2c-1.2,0-1.8,2-1.8,6.1v17.8c0,2,0.2,4.6,0.6,7.8c0,1.9,1.7,2.8,5.2,2.8
					l-2.3,2.8v0.5c3.4,5.2,11.1,7.8,23.1,7.8h3c1.4,0,3.1-0.2,5.1-0.5c0.6,0.4,1.8,0.5,3.5,0.5s5.4-0.6,11-1.7
					c4.8-2.9,8.5-4.4,10.9-4.4h1.2c5.2,4.1,9.8,6.1,13.9,6.1c1.1,0,1.7-0.2,1.7-0.5c4.3,0,6.4-2,6.4-6.1v-33.9
					c-2.7-1.7-4.1-3.8-4.1-6.1c0-0.7,1.4-1.2,4.1-1.7c0-0.8-0.2-1.6-0.7-2.2l0.7-3.3v-6.6C664.3,80.3,662,78,657.3,78L657.3,78z
					 M597.2,87.5l0.6-1.2c0.8,0,1.1,0.4,1.1,1.2c0,0.7-0.4,1.1-1.1,1.1h-0.6V87.5z M591.4,88.6h-0.6c-1.2-0.6-1.8-1.2-1.8-1.7v-0.5
					h2.3V88.6z M602.4,100.2h-2.9c-2.1,0-3.7,0.9-4.7,2.8l-1.1-0.5l1.1-3.8l3.5,0.5l2.9-1.2c0.8,0,1.2,0.4,1.2,1.2L602.4,100.2
					L602.4,100.2z M633.1,125.3h-0.7V123c0-0.7,0.4-1,1.2-1.2h0.6c0,0.4,0.2,1,0.6,1.7C634.1,124.7,633.6,125.3,633.1,125.3z
					 M636,110.2l-0.7,1.1l-1.1-0.5c0.4-0.7,0.6-1.2,0.6-1.6h1.2V110.2L636,110.2z M653.3,100.2c0-0.4-0.4-0.5-1.2-0.5v-2.8
					c-0.9-1.5-1.7-2.2-2.2-2.2c0.4-1.8,1-2.8,1.7-2.8l1.2,0.5c0,0.4-0.2,1-0.7,1.7c1.7,1.8,2.9,3.5,3.5,5
					C655.6,99.5,654.8,99.9,653.3,100.2L653.3,100.2z M659.1,134.1c-0.7,0-1.1-0.4-1.2-1.2h1.2V134.1z"/>
				<path class="st0" d="M225.6,92.8c-0.7-4.6-1-7.2-1-8c0-0.4-1.3-1.3-4-2.8c0-0.7,1-1.2,2.9-1.7c-1.2-9.6-2-14.3-2.3-14.3
					c0-5.9-1.5-8.9-4.6-8.9v-0.5c1.1,0,1.7-0.4,1.7-1.2c0-1.4-1.1-4.9-3.4-10.5h0.6c-2.7-15.6-4-24.3-4-26
					c-0.9-7.8-3.8-11.6-8.7-11.6H201c-0.9,0-1.6,0.2-2.3,0.5c-0.7-0.4-1.5-0.5-2.3-0.5h-8.6c-1.6,0.8-2.3,1.7-2.3,2.8h-1.1l-2.9-2.8
					h-5.8c-2.5,0-4.8,0.9-6.9,2.8c-1.7,9.2-3.6,15.6-5.8,19.3c-5,28.1-8.8,50.4-11.6,66.9L225.6,92.8L225.6,92.8z M220.6,89.7v0.6
					c0,0.7-0.4,1.1-1.2,1.1h-1.1c0-0.4-0.2-1-0.6-1.7H220.6z M205,35.6c0.8,0,1.1,0.4,1.1,1.1H205V35.6z M197,52.7v3.9h-1.2
					c-0.6,0-1-0.4-1.1-1.2v-1.1c0.6-1.1,1.1-1.7,1.7-1.7L197,52.7L197,52.7z M194.7,11.2h1.7v2.2l-0.6,1.1c-0.8-0.1-1.6-1-2.3-2.8
					L194.7,11.2L194.7,11.2z M188.4,58.2c0.6,0.1,1.5,0.8,2.9,2.2c1.1,11,2.1,16.6,2.9,16.6l-0.6,2.8c0,1,0.2,2.4,0.6,4.5
					c-3.5,2.8-5.2,4.8-5.2,6.1h-0.6c-2.3-1.2-3.9-3-4.7-5.6C183.7,67.1,185.3,58.2,188.4,58.2L188.4,58.2z M183.7,25.6v1.1h-1.1
					C182.6,26.1,183,25.7,183.7,25.6z M180.9,88.1h1.1c1.1,0.3,1.7,1.4,1.7,3.3V92c-0.6,1.1-1.1,1.7-1.7,1.7h-0.6
					c-0.8,0-1.4-1.5-1.8-4.5C179.7,88.6,180.1,88.2,180.9,88.1z M171.1,82.6l1.1,0.5c0,0.4-0.2,1-0.6,1.7c1.6,1.7,2.8,3.4,3.4,4.9
					c0,0.5-0.8,0.9-2.3,1.2c0-0.4-0.4-0.5-1.1-0.5v-2.8c-0.9-1.5-1.7-2.2-2.3-2.2C169.9,83.5,170.4,82.6,171.1,82.6L171.1,82.6z"/>
				<path class="st0" d="M232.4,132.9c0-0.6,0.4-1.6,1.1-2.8c-2.4-14.1-4.1-24.5-5.1-31.2l-74.6,3.5c-3.3,19.7-4.9,30.7-4.9,33.2
					v2.2l1.8,2.2c7.6,0.4,12.8,0.5,15.5,0.5c0.6,0,1.7-0.6,3.4-1.7l2.3,1.7h2.3c4.6,0,6.9-2.2,6.9-6.6v-3.3l-1.1-1.7v-1.1
					c0.8,0,1.6-0.2,2.2-0.5c0-8.5,2.9-12.7,8.7-12.7c5.3,0.7,8,2.5,8,5.5h1.8c0-0.3,0.6-1.9,1.7-4.9c0.7,0,1.3,0.9,1.8,2.8
					c-1.2,2.6-2.7,3.8-4.6,3.8l0.6,5c0,9.2,2.9,13.8,8.6,13.8h18.4c5,0,7.5-1.7,7.5-5C233.9,133.9,233.1,133,232.4,132.9
					L232.4,132.9z M155.2,120.7h-0.6v-3.3h1.7c0,0.4,0.2,0.9,0.6,1.6C156.3,120.1,155.8,120.7,155.2,120.7z M158.1,105.7l-0.6,1.1
					l-1.2-0.5c0.4-0.7,0.6-1.2,0.6-1.6h1.2V105.7L158.1,105.7z M193.2,109.1h-0.6l0.6-2.8h0.6c0.8,0,1.1,0.4,1.1,1.1
					C194.3,108.5,193.7,109,193.2,109.1L193.2,109.1z M200.1,110.1h-0.6v-1.1h0.6V110.1z M206.5,114.1h-1.2v-1.2h1.2V114.1z
					 M209.9,108.5c-0.4,0-1,0.2-1.8,0.5v-2.2h0.6c0.8,0,1.2,0.4,1.2,1.2C209.9,108,209.9,108.5,209.9,108.5z M217.4,115.1h-1.1
					c-0.5,0-1.3-1.3-2.3-3.8v-1.2h1.8c0,1.1,0.6,2.6,1.7,4.5V115.1L217.4,115.1z"/>
				<path class="st0" d="M724.3,139l2,5.6h2.4c0.8-0.1,1.1-0.5,1.1-1.2v-0.5c0-1.1-1-1.7-2.9-1.7v-1.7c0.1-0.7,0.5-1.1,1.1-1.1h0.7
					c2.8,0.7,4.3,1.1,4.7,1.1l1.2-1.7v-1.7c-1.3-4.1-2.5-6.2-3.5-6.2h-1.8c-0.9,0-1.7,0.2-2.3,0.5c-2.2,0-4.1-0.3-5.8-0.8l1.4,3.9
					l0.3-0.2c0,1.2,0.6,2.6,1.8,3.9v1.7L724.3,139L724.3,139z"/>
				<rect x="726" y="137.8" class="st0" width="0.6" height="1.1"/>
				<path class="st0" d="M712.5,100.9c1.4-8.1,3.5-12.1,6.2-12.1c10.6,0,15.9-1.5,15.9-4.5c0.4-0.7,0.6-1.6,0.6-2.9v-6.8
					c0-4.5-3-6.7-8.8-6.7c-7.8,0-11.7-2.1-11.7-6.3c-0.4,0-0.6-0.8-0.6-2.2V35.1c0-6.8,3.5-10.2,10.6-10.2h5.2
					c3.5,0,5.3-2.1,5.3-6.2v-6.8c0-3.8-1.2-5.9-3.5-6.2l-4.1,0.5c0-0.5-0.6-1.1-1.8-1.7H684c-1.9,0-3.4,0.5-4.4,1.5L712.5,100.9
					L712.5,100.9z M729.3,14.8h1.8v0.5h-1.8V14.8z M703.4,14.8c4.3-0.7,6.5-2.2,6.5-4.6h0.6v5.6h-2.9l-2.4,1.7
					c-0.6,0-1.2-0.6-1.8-1.7V14.8z M701.6,27.8v1.1h-1.1C700.6,28.1,701,27.8,701.6,27.8z M695.8,6.8h0.7c0.8,0,1.1,0.4,1.1,1.2v0.5
					h-1.8C695.8,8.5,695.8,6.8,695.8,6.8z M692.2,29.5h0.7v1.1c0,0.5-0.6,1.1-1.8,1.7c0-0.4-0.2-0.5-0.6-0.5
					C691.1,30.2,691.7,29.5,692.2,29.5L692.2,29.5z M688.1,10.8c0.8-0.9,1.2-1.6,1.2-2.2h1.2v1.2c0,0.5-0.6,1.1-1.8,1.7h-0.7V10.8
					L688.1,10.8z"/>
				<path class="st0" d="M716.8,136.1h-0.3c-0.5,0-1.5-1.1-3-3.4l1.7-1.2l-1.8-5.3c-4.2-2-6.2-6-6.2-12.1v-1.2
					c0.1-1.2,0.3-2.3,0.4-3.4l-33.3-96.1c-0.4,0.9-0.7,2.1-0.7,3.4v79.7l0.4,39.6c0,3.8,2.4,5.6,7.1,5.6h17.2c4.5,0,8.8-1.3,13-3.9
					h1.1c0.8,0,1.2,0.6,1.2,1.7c-0.4,0.7-0.6,1.3-0.6,1.7l1.1,0.5h4.7L716.8,136.1L716.8,136.1z M693.6,81.8
					c-0.7-1.4-3.2-2.9-7.6-4.5l-0.7-1.2v-0.5l1.2-1.7c3,0,6.4,1.3,10,3.9v0.5c-1.5,0-2.3,0.4-2.3,1.2c0.6,0.4,1.6,0.5,2.9,0.5
					C696.7,81.3,695.6,81.8,693.6,81.8L693.6,81.8z"/>
			</g>
			<g class="st1">
				<path class="st0" d="M151.7,177.8h6c2.1,0,3.1,1.1,3.1,3.2v0.6c0,0.1-0.1,0.2-0.2,0.2c0.3,0.3,0.5,1.4,0.7,3.4
					c-0.5,0.6-0.7,1.1-0.7,1.3c0.7,0,1.3,1.8,1.7,5.3c0.2,0,0.4,0.5,0.7,1.5c-0.2,0.2-0.2,0.4-0.2,0.6c0.4,0,0.8,1.5,1.2,4.5
					l0.7,0.4h0.7c0.6,0,1.1-2,1.7-6c0.3-0.1,0.7-0.8,1.2-2.1c0.4-7.9,1-11.9,1.9-11.9c1.1,0,1.8-0.3,2.1-0.9h6.2
					c1.2,0,2,0.3,2.4,0.9v0.2c-0.5,4.5-1.1,7.1-1.9,7.7l0.2,0.9c-0.3,1.6-0.5,3.1-0.5,4.5v1.3c0,0.2-0.2,0.4-0.5,0.4h-1.4l-0.2,1.1
					c1.1,0.2,1.7,0.4,1.7,0.6c-1.3,7.4-2.3,11.1-2.8,11.1l0.2,1.1c-0.7,4-1.3,6-1.9,6h-0.5v0.4c0.5,0.5,0.7,0.9,0.7,1.1
					c-0.6,4.2-1.8,6.2-3.6,6.2h-11.9c-2.2,0-3.3-1.4-3.3-4.2c-2.5-12.5-4-20.3-4.3-23.6l0.3-1.3c-0.3-1.7-0.5-3.3-0.5-4.9V187
					c-0.5-0.5-0.7-1.4-0.7-2.5l0.2-1.7l-0.2-1.1c0.2-0.2,0.2-0.5,0.2-0.8c-0.8,0-1.2-0.5-1.2-1.5
					C148.9,178.3,149.8,177.8,151.7,177.8z M152.4,191.9v0.4h0.5v-0.4H152.4z M152.4,194h0.5v-0.4
					C152.6,193.6,152.4,193.8,152.4,194z M153.1,197.6h0.7v-0.4h-0.2C153.3,197.2,153.1,197.4,153.1,197.6z M158.1,210.6v0.5h0.2
					c0.3,0,0.5-0.1,0.5-0.4l-0.5-0.2H158.1z M159.1,208.1l0.5,0.2h0.2c0.3,0,0.5-0.1,0.5-0.4v-0.4h-0.5
					C159.6,207.6,159.3,207.7,159.1,208.1z M161.7,203.6v0.6c0.3-0.1,0.5-0.2,0.7-0.2v-0.4H161.7z M163.6,206.6
					c0.2,0.2,0.2,0.4,0.2,0.6l-0.2,0.9h0.5c0-0.2,0.3-0.6,1-1.1v-1.3h1.7v-0.5h-0.9C165.2,205.3,164.5,205.8,163.6,206.6z
					 M163.8,202.5c0,0.2,0.4,0.4,1.2,0.6h0.2v-0.2L163.8,202.5z M167.9,191.9c0.2,0.5,0.5,0.8,0.7,0.8h0.2v-0.4
					c0-0.3-0.2-0.4-0.5-0.4H167.9z M169.5,196.4v0.2h0.5c0.3,0,0.5-0.1,0.5-0.4v-0.2H170C169.7,196.1,169.5,196.2,169.5,196.4z
					 M170.9,213.6l0.5,0.2h0.2v-0.6h-0.2C171.1,213.2,170.9,213.4,170.9,213.6z"/>
				<path class="st0" d="M184.9,221.9c-1.9,0-2.9-0.6-2.9-1.9l-0.2-13.5v-27.2c0-1.4,0.8-2.1,2.4-2.1h17.2c0.5,0.2,0.7,0.4,0.7,0.6
					l1.7-0.2c1,0.1,1.5,0.8,1.5,2.1v2.3c0,1.4-0.7,2.1-2.2,2.1H201c-2.9,0-4.4,1.2-4.4,3.5v8.3c0,0.5,0.1,0.8,0.2,0.8
					c0,1.4,1.6,2.1,4.8,2.1c2.4,0,3.7,0.8,3.7,2.3v2.3c0,0.4-0.1,0.8-0.2,1c0,1-2.2,1.5-6.6,1.5c-1.4,0-2.3,2.1-2.9,6.2v0.4
					c0,3.1,1.9,4.6,5.6,4.6c0.3-0.1,0.6-0.2,1-0.2h0.7c0.4,0,0.9,0.7,1.5,2.1v0.6l-0.5,0.6c-0.1,0-0.8-0.1-1.9-0.4h-0.3
					c-0.3,0-0.4,0.1-0.5,0.4v0.6c0.8,0,1.2,0.2,1.2,0.6v0.2c0,0.2-0.2,0.4-0.5,0.4h-3.4l-0.5-0.2c0-0.1,0.1-0.3,0.2-0.6
					c0-0.4-0.2-0.6-0.5-0.6h-0.5c-1.7,0.9-3.5,1.3-5.3,1.3H184.9z M185.9,179.5h0.3c0.5-0.2,0.7-0.4,0.7-0.6v-0.4h-0.5
					c0,0.2-0.2,0.5-0.5,0.8V179.5z M190.1,201.5c0.8,0,1.3-0.2,1.4-0.6c-0.5,0-0.9-0.1-1.2-0.2c0-0.3,0.3-0.4,1-0.4v-0.2
					c-1.5-0.9-2.9-1.3-4.1-1.3l-0.5,0.6v0.2l0.3,0.4C188.8,200.5,189.8,201,190.1,201.5z M187.2,186.6c0.5-0.2,0.7-0.4,0.7-0.6v-0.4
					h-0.3c-0.2,0-0.5,0.3-0.7,0.8C187.1,186.5,187.2,186.5,187.2,186.6z M189.1,178.6h0.7v-0.2c0-0.3-0.2-0.4-0.5-0.4h-0.3V178.6z
					 M191.1,185.5h0.5v-0.4C191.3,185.1,191.1,185.2,191.1,185.5z M192.3,181.1c0.3,0.4,0.5,0.6,0.7,0.6l1-0.6h1.2v-1.9h-0.2
					c0,0.8-0.9,1.3-2.7,1.6V181.1z M198.3,218.8c0.6,0.8,1,1.2,1.2,1.2h0.7v-0.6c-0.5-0.5-0.7-0.9-0.7-1.3L198.3,218.8z
					 M202.9,180.9h0.7v-0.2h-0.7V180.9z M203.4,220.9v-0.4h0.2v0.4H203.4z"/>
				<path class="st0" d="M222.8,177.6h5.9c6.6,0,10.5,0.9,11.8,2.6c0.8,1.3,1.2,2.8,1.2,4.5v0.4l-1.7,1.1c1.1,0.2,1.7,0.4,1.7,0.7
					v0.6l-1.4,0.7v0.2l1.2-0.2l0.2,0.4v0.5c0,1.9-0.8,2.8-2.3,2.8c-0.6,0-1.3-0.1-1.9-0.2c-2.1,0.1-3.9,0.2-5.4,0.2h-1.9
					c-1.3-0.1-1.9-0.5-1.9-1.3c0.3-1.9,0.9-3.1,1.7-3.6c-0.9,0-1.4-0.7-1.4-2.2c0.4-0.2,1-0.4,1.9-0.6c-0.3-0.6-0.9-0.9-1.9-0.9
					c-0.3,0-0.6,0.1-0.9,0.2l-0.5-0.2c-3.3,0-5,1.3-5,3.9c0,0.5-0.5,1-1.4,1.7v0.5l0.2,0.4c0.3,0,0.7-0.4,1.2-1.1h0.3
					c0.5,1.1,1.2,2.4,2.3,3.9h0.7c3.3,0.8,5,1.6,5,2.3c-0.3,0.8-0.5,1.3-0.5,1.5c0.1,0,0.3,0.1,0.7,0.4c0-0.7,0.4-1.2,1.2-1.5
					c4.5,0.9,7.7,2.4,9.7,4.5c0.8,1.1,1.2,2.7,1.2,4.7c0,0.2-0.1,0.4-0.2,0.4l0.2,1.3v3.9c0,0.5-0.1,1-0.2,1.5
					c0.2,0.5,0.2,1,0.2,1.5v1.9c0,0.7-0.3,1.1-1,1.3l0.5,0.8c-1.2,2.9-4.8,4.3-10.9,4.3h-11.6c-0.4-0.2-1.3-0.4-2.8-0.8l-1.7,0.2
					c-0.6-1-0.9-1.6-0.9-1.9c-0.2,0-0.8,0.4-1.7,1.3c-2.8-0.8-4.3-3.5-4.3-8.2v-4.9c0-2.5,0.7-3.8,2.1-3.8h11.1
					c0.9,0.4,1.4,1.1,1.4,2.1v5.3c0,2.1,0.8,3.2,2.3,3.2h0.3c1.6,0,2.3-1.1,2.3-3.2v-3.9c0-2.3-0.9-3.7-2.6-4.3
					c-3.8-1.1-5.7-2-5.7-2.6l-0.5,0.2c-3.3-0.5-6.4-1.9-9.5-4.3c-0.9-1.8-1.4-3.8-1.4-6c0.6-3.1,1.1-4.7,1.7-4.7l-0.7-0.8v-0.5
					c0.5-0.3,0.9-1.5,1.2-3.4c1.3-1.2,2.5-1.9,3.5-2l1.4,0.2h0.3c0.6,0,1.2-0.3,1.9-0.8h1.9c0.4,0,0.9,0.1,1.4,0.4
					C221.7,177.8,222.3,177.6,222.8,177.6z M215.2,216.8l-0.2,0.4c0.2,0.2,0.2,0.4,0.2,0.5h0.5c0.3,0,0.5-0.1,0.5-0.4V217
					C215.6,216.9,215.3,216.8,215.2,216.8z M217.6,182.7v0.2h0.7v-0.2H217.6z M219.3,218.5v0.7c0.1,0.3,0.2,0.4,0.5,0.4h0.2
					c0-0.1,0.1-0.5,0.2-1.1c-0.2,0-0.2-0.1-0.2-0.2C219.6,218.5,219.4,218.5,219.3,218.5z M220.4,217v0.5c0.1,0.2,0.2,0.4,0.5,0.4
					c0.3,0,0.5-0.1,0.5-0.4v-0.2c0-0.2-0.2-0.4-0.5-0.4H220.4z M220.9,178.9v0.5l1.2-0.2c0-0.2-0.2-0.4-0.5-0.4H220.9z M221.4,194.7
					v0.9h0.2c0.3-0.1,0.6-0.2,0.7-0.2v-0.2C222.3,195.1,222,194.9,221.4,194.7z M223.5,181v0.5h0.5V181H223.5z M223.7,197.5v0.6h0.3
					c0.3,0,0.6-0.1,0.9-0.2c0.3,0.1,0.6,0.2,1,0.2v-0.6c-0.6,0-1-0.2-1-0.7h-0.2C224.4,196.8,224.1,197,223.7,197.5z M224.7,195.4
					v0.2c0.1,0.2,0.2,0.4,0.5,0.4h0.2v-0.2c0-0.2-0.2-0.4-0.5-0.4H224.7z M224.9,179.3v0.6h0.7v-0.6H224.9z M228.7,202
					c0,1,0.6,1.5,1.7,1.5c0,0.5,0.2,0.8,0.5,0.8h0.2c0.5,0,0.7-0.3,0.7-0.8c0-0.2-0.5-0.5-1.4-0.9c0-0.2-0.2-0.4-0.7-0.5H228.7z
					 M230.8,189.1v0.4h0.5v-0.4H230.8z M231.3,180.4v0.6c0.3,0,0.5-0.1,0.5-0.4v-0.2H231.3z M234.4,180.8v0.4c0.3,0,0.5-0.1,0.5-0.4
					H234.4z M234.6,202.2v0.4c0,0.3,0.1,0.5,0.2,0.8c-0.2,0.2-0.2,0.5-0.2,0.7c0,0.1,0.1,0.3,0.2,0.6c-0.2,0.2-0.2,0.5-0.2,0.8
					l0.2,0.4c-0.3,0.4-0.5,0.8-0.5,1.1v0.2c0.1,0.2,0.2,0.4,0.5,0.4c0.3-0.1,0.6-0.2,0.7-0.2v-0.5l-0.2-1.1l0.7-0.9
					c-0.4-1.6-0.8-2.4-1.2-2.4H234.6z M237,181.2v0.4h0.9v-0.2l-0.2-0.4C237.4,181.1,237.1,181.2,237,181.2z M239.3,216.4v0.4h0.5
					c0.3,0,0.5-0.1,0.5-0.4c-0.2,0-0.3-0.1-0.3-0.2C239.7,216.4,239.5,216.4,239.3,216.4z"/>
				<path class="st0" d="M248.8,177.6h22.4c1.7,0,2.6,0.7,2.6,2.1c0.2,0,0.2,0.2,0.2,0.6c-0.5,1.5-1.1,2.3-1.9,2.3
					c-3.8,0-5.7,1.5-5.7,4.4v3c0,1,0.2,2.7,0.7,5.1c0,0.3-0.1,0.5-0.3,0.8c0.3,0.5,0.5,1,0.5,1.5v5.1c0,0.5-0.1,1-0.2,1.5
					c0.2,0.5,0.2,1,0.2,1.5v1.1c0,0.4-0.1,0.6-0.2,0.6l0.2,0.9v2.4c0,1-0.1,1.9-0.2,2.7c0.2,0.6,0.2,1.4,0.2,2.5v0.8
					c0,0.3-0.1,0.5-0.2,0.7c0.2,0.2,0.2,0.5,0.2,0.8v0.6c0,2-0.9,3-2.6,3h-9.3c-1.6,0-2.4-0.6-2.4-1.9c-0.3,0-0.4-0.8-0.5-2.3v-6.6
					l0.5-0.6V210l-0.5-0.6v-7.9c0-0.1,0.5-0.5,1.4-0.9c-0.5,0-1-0.8-1.4-2.3V195c0.6-2.8,0.9-4.5,0.9-4.9v-3.2c0-2.8-1.7-4.2-5-4.2
					c-1.7,0-2.6-0.8-2.6-2.4v-0.4C245.9,178.4,246.9,177.6,248.8,177.6z M255.5,194.6c0.2,0,0.2,0.1,0.2,0.2
					c0.7-0.2,1.1-0.4,1.4-0.4c-0.2-0.5-0.5-0.8-0.7-0.8C256.1,193.8,255.8,194.1,255.5,194.6z M256,213.9c0.1,0.2,0.2,0.4,0.5,0.4
					h0.2c0.8-0.3,1.2-0.6,1.2-0.7v-0.2h-1.2C256.5,213.4,256.2,213.6,256,213.9z M256.2,182.3v0.4h0.7v-0.4H256.2z M256.7,210v0.5
					h1.2v-0.2c0-0.2-0.2-0.4-0.5-0.4H256.7z M258.1,198.8v0.2h1v-0.7h-0.2C258.6,198.2,258.4,198.4,258.1,198.8z M260.3,193.3
					l-0.2,0.4c0.3,0.4,0.5,0.8,0.5,1.1l1.4-0.2c0.7,0.2,1.1,0.4,1.4,0.4l0.3-0.4v-0.4h-1.2C261.8,194.2,261.1,193.9,260.3,193.3z
					 M261.5,198.2v0.4c0.1,0.2,0.2,0.4,0.5,0.4l0.2-0.4c0-0.2-0.2-0.4-0.5-0.4H261.5z M265.7,212.8c0.1,0.2,0.2,0.4,0.5,0.4v-0.4
					H265.7z"/>
				<path class="st0" d="M279.5,177.8h4.5c0.6,0,1.3,0.1,2.2,0.2c0.3-0.1,0.6-0.2,0.9-0.2c0.3,0,1,0.5,2.2,1.5
					c-0.2,0.2-0.2,0.4-0.2,0.6c0.2,0,0.2,0.1,0.2,0.2l-0.5,0.2c-0.3-0.5-0.5-0.7-0.7-0.7h-0.2c-0.3,0-0.5,0.2-0.5,0.4
					c0.3,0,1,0.6,2.1,1.7v1.3c0,0.4-0.1,0.7-0.2,0.9l0.2,1.1v3.4c0.6,2.1,1,3.4,1,4v12.2c0,0.2-0.2,0.4-0.7,0.4l0.7,0.8v0.9
					c0,0.7-0.1,1.1-0.2,1.3c0.2,0.7,0.2,1.3,0.2,1.7v0.8c0,0.4-0.1,1-0.2,1.7c0.2,0.2,0.2,0.6,0.2,1.1c0,0.5-0.2,0.8-0.5,0.8
					c0.3,0.4,0.5,0.8,0.5,1.1v4.2c0,1.5-1.2,2.3-3.6,2.3h-8.1c-2.1,0-3.1-0.7-3.1-2.1v-8.5c0-0.3,0.1-0.5,0.2-0.8
					c-0.2-0.2-0.2-0.4-0.2-0.7v-0.2c0.6-0.7,1-1.2,1-1.3c-0.3,0-0.6-0.2-1-0.7c0-0.5,0.1-0.8,0.2-0.8l-0.2-1.3v-6.4
					c0-0.4,0.1-0.7,0.2-0.9l-0.2-1.1v-4.3c0.6-2.8,1-4.5,1-4.9V180C276.7,178.5,277.6,177.8,279.5,177.8z M277.1,204v0.2
					c0.1,0.2,0.2,0.4,0.5,0.4h0.5v-0.2c0-0.2-0.2-0.4-0.5-0.4H277.1z M278.6,187.2l0.5,0.2h0.3v-0.6H279
					C278.7,186.8,278.6,187,278.6,187.2z M280.7,186.4l0.2,0.4c1.4-0.2,2.1-0.5,2.1-0.7v-0.6C281.5,185.8,280.7,186.1,280.7,186.4z
					 M283.1,193.6v0.4h0.3c0.3,0,0.5-0.1,0.5-0.4H283.1z M284.3,205.5c0,0.1-0.1,0.2-0.2,0.2c0.1,0.8,0.3,1.1,0.5,1.1
					c0.9-0.1,1.4-0.3,1.4-0.5v-0.6L284.3,205.5z M284.5,184.5v0.2c0,0.6,0.7,1.2,2.1,1.9v0.9c0.3,0,0.8,0.3,1.7,0.9h0.5
					c0-0.2-0.6-0.6-1.9-1.3c0.5-0.8,0.9-1.1,1-1.1c0-0.2-0.4-0.5-1.2-0.9c0.4-0.6,1.2-0.9,2.2-0.9V184c0-0.3-0.2-0.4-0.5-0.4
					C286.7,183.9,285.5,184.2,284.5,184.5z M284.5,198.3v0.2c0,0.3,0.2,0.4,0.5,0.4h0.2v-0.6H284.5z M286.4,201.5l-0.2,0.4v0.5h0.2
					c0.3,0,0.5-0.1,0.5-0.4v-0.2C286.9,201.6,286.7,201.5,286.4,201.5z M286.2,204.5h0.2c0.3,0,0.5-0.1,0.5-0.4h-0.2
					C286.3,204.2,286.2,204.3,286.2,204.5z M286.4,214v0.2l1.4,0.2c0-0.1,0.1-0.2,0.2-0.2l-0.5-0.8
					C286.8,213.6,286.4,213.7,286.4,214z"/>
				<path class="st0" d="M300,177.8c0.2,0,0.2,0.1,0.2,0.2l1.2-0.2h1.9c0.2,0,0.3,0.1,0.3,0.2l0.5-0.2h6.2c2.7,0,4,1.2,4,3.6
					c0.1,1.8,0.9,4.6,2.6,8.5c0.1,1.1,0.4,1.7,1,1.9h0.7c0.6,0,1.3-1.6,2.1-4.7c0.4,0,0.8-0.9,1.2-2.8c0.7,0,1.3-0.1,1.7-0.4
					c0-0.4-0.5-0.6-1.4-0.6c0-3.6,1.1-5.5,3.3-5.5h1.4l0.7,0.4c0.1-0.2,0.2-0.4,0.5-0.4h3.5c0.5,0,0.9,0.1,1.2,0.2l1.4-0.2h3.8
					c1.7,0.3,2.6,0.7,2.6,1.1v0.2l-0.2,1.9c0.3,0,0.5,0.2,0.5,0.4v1.5c0.6,3.9,1,6.4,1,7.4v16.4c0,0.3-0.1,0.5-0.2,0.8
					c0.2,0.2,0.2,0.5,0.2,0.7v5.9c-0.3,0.9-0.5,1.4-0.5,1.5l0.5,0.6v1.1c-1,1.4-1.8,2.2-2.4,2.4l0.2,0.9v0.6c0,0.2-0.2,0.4-0.5,0.4
					H338c-0.6,0-1-0.1-1-0.2l-1.7,0.2h-3.8c-1.7-0.2-2.6-0.5-2.6-0.9l0.3-0.9c-0.2-0.2-0.3-0.4-0.3-0.5c0.3-0.1,0.6-0.2,1-0.2v-0.2
					c-0.9-0.5-1.4-0.8-1.4-0.9v-0.5c0-0.5,0.4-1,1.2-1.5v-0.4c-0.8,0-1.2-0.2-1.2-0.5v-7.9c0-1.9-0.4-2.8-1.2-2.8
					c-0.4,0-1.4,2.6-2.8,7.9l0.2,0.4l-1.7,7.4c-0.8,0-1.2,0.3-1.2,0.8c0.2,0.2,0.2,0.4,0.2,0.5c-0.6,0.4-1.3,0.6-2.1,0.6h-0.2
					c-0.5,0-0.7-0.1-0.7-0.2l-1.2,0.2h-1c-2.4,0-3.5-1.4-3.5-4.2c-1.4-6.6-2.6-11-3.6-13.2l-0.5-0.2h-0.2c-0.5,0-1,1.4-1.4,4.3
					l0.5,0.7c0,0.4-0.1,0.7-0.2,0.9c0.2,2.3,0.2,4.3,0.2,5.9v3.4c0,1.1-0.4,1.7-1.2,1.7c-0.5-0.2-1-0.4-1.4-0.4h-0.2
					c0,0.6-0.2,0.9-0.5,0.9h-6.9c-2.1-0.1-3.1-1-3.1-2.4v-3.8c0-0.4,0.1-1,0.2-1.7c-0.2-0.2-0.2-0.5-0.2-0.9
					c0.9-0.3,1.4-0.6,1.4-0.8v-0.4c-0.8,0-1.3-0.6-1.4-1.9v-0.9c0-0.3,0.1-0.5,0.2-0.8c-0.2-0.2-0.2-0.5-0.2-0.7v-1.1
					c0-0.1,0.2-0.6,0.5-1.5c-0.3,0-0.5-0.1-0.5-0.4v-7.9l0.5-1.3l-0.5-0.2l0.2-1.3v-1.5l0.7-0.7V191l-1-1.1v-0.2
					c0-1.5,0.4-2.8,1.2-3.8l-0.2-1.3c0-0.8,0.3-1.5,0.9-2.1v-0.7c-0.6,0-0.9-0.2-0.9-0.6c0-2.1,0.7-3.2,2.1-3.2
					C298.7,177.8,299.5,177.8,300,177.8z M297.6,181.9l-0.5,1.3h0.7c0.6-0.4,1.1-0.5,1.4-0.5l2.2,0.5l-1-1.3l-1.7,0.2L297.6,181.9z
					 M297.6,197v0.4h0.2V197H297.6z M298.8,192.8l-0.2,0.4c0,0.4,0.3,0.6,1,0.6c0.3-0.1,0.5-0.2,0.7-0.2
					C300.1,193.1,299.6,192.8,298.8,192.8z M299.3,179.3v0.6c0,0.2,0.2,0.4,0.7,0.6h0.2c0-0.7-0.2-1-0.7-1.1H299.3z M300.5,204
					l-0.2,0.9v0.4h0.5l0.3-0.9C301,204.1,300.8,204,300.5,204z M300.5,193.6v0.4h0.7v-0.4H300.5z M301,210.2l-0.5,1.3
					c0.8,1,1.3,1.5,1.4,1.5c1.3,0,1.9-0.4,1.9-1.3c1.3-0.4,2-0.6,2.1-0.6v-0.5c-2.1,0.6-3.3,0.9-3.5,0.9c-0.8,0-1.2-0.4-1.2-1.3H301
					z M300.7,191c0.3,0.4,0.5,0.7,0.5,0.9c-0.3,0-0.5,0.2-0.5,0.4v0.4h0.5l0.5-1.3v-0.6h-0.5L300.7,191z M301.5,209.8
					c1.7-0.1,2.6-0.3,2.6-0.5v-0.2C302.3,209.2,301.5,209.5,301.5,209.8z M301.9,180.4l-0.2,0.4c0.3,0.4,0.5,0.7,0.5,0.9h0.5
					c0.3,0,0.5-0.1,0.5-0.4v-0.5C302.8,180.8,302.4,180.7,301.9,180.4z M303.1,186.1v0.4h0.2l0.5-0.2c-0.2-0.2-0.2-0.4-0.2-0.6
					C303.3,185.7,303.1,185.8,303.1,186.1z M303.1,192.3v0.4c0.3,0,0.5-0.1,0.5-0.4H303.1z M303.3,206.4v0.9h0.7l-0.2-0.9H303.3z
					 M303.6,205.7v0.4h0.7v-0.8h-0.2C303.8,205.3,303.6,205.5,303.6,205.7z M304.5,183.2l-0.7,1.9l0.5,0.2h1l-0.2-1.9v-0.2H304.5z
					 M304.8,199.8v0.2c0.1,0.2,0.2,0.4,0.5,0.4c0.3,0,0.5-0.1,0.5-0.4l-0.5-0.2H304.8z M306.2,215.7c0.1,0.2,0.2,0.4,0.5,0.4v-0.4
					H306.2z M306.7,196.6v0.7h0.7V197c0-0.2-0.2-0.4-0.5-0.4H306.7z M307.6,184v0.9h0.7c0.8-1,1.6-1.5,2.4-1.5
					c0.5,0,0.7-0.1,0.7-0.4v-0.2c0-0.3-0.2-0.4-0.7-0.4C308.9,183,307.9,183.5,307.6,184z M309.3,195.9c0,0.2,0.2,0.6,0.5,1.1
					c0.3,0,0.9-0.5,1.9-1.5c0-0.3-0.2-0.4-0.5-0.4H310C309.6,195.1,309.4,195.4,309.3,195.9z M311.4,184.5v0.4h0.5v-0.4H311.4z
					 M311.7,198.1h0.5v-0.4C311.8,197.8,311.7,197.9,311.7,198.1z M312.4,188.9c-0.3,0.4-0.5,0.7-0.5,0.9h0.5c0.3,0,0.5-0.1,0.5-0.4
					v-0.2C312.8,189,312.7,188.9,312.4,188.9z M319.3,219.3v0.4h0.2v-0.4H319.3z M320.2,211.3c0.2,0.5,0.5,0.8,0.7,0.8h0.3v-0.5
					c0-0.3-0.2-0.4-0.5-0.4L320.2,211.3z M320.5,196.4v0.4c0.5,0,0.7,0.3,0.7,0.9h0.7c0-0.1,0.1-0.3,0.2-0.6
					c-0.3-0.4-0.5-0.8-0.5-1.1h-0.7C320.6,196.1,320.5,196.2,320.5,196.4z M321.2,201.9v0.4h0.2v-0.4H321.2z M325.5,179.5v0.4h0.7
					c0-0.2-0.2-0.4-0.5-0.4H325.5z M330,188.7v0.4c0.2,0,0.4,0.1,0.7,0.2v-0.2c0-0.3-0.2-0.4-0.5-0.4H330z M330.7,181.9v0.2h0.5
					v-0.2H330.7z M330.9,182.9v0.5h0.5v-0.2C331.4,183,331.2,182.9,330.9,182.9z M331.9,192.3v0.4h0.2v-0.4H331.9z M332.1,189.3
					c1.1,0,2.1,0.5,2.8,1.5c0.1,0,0.5,0.3,1.2,0.8c0.3-1,0.5-1.6,0.5-1.9l-1.7-1.1h-0.7C333,188.5,332.3,188.8,332.1,189.3z
					 M332.8,201.1c0.2,0.2,0.2,0.4,0.2,0.5h0.5v-0.5H332.8z M333.3,182.3v0.6h1.2c0.3,0,0.5-0.1,0.5-0.4v-0.4L333.3,182.3z
					 M336.1,208.1v0.6h1.2v-0.6H336.1z M336.4,198.3v0.4h0.2v-0.4H336.4z M339.5,197.2l0.5,0.2v-0.5
					C339.6,196.9,339.5,197,339.5,197.2z M340.2,208.3l0.5,0.2v-0.6C340.3,208,340.2,208.1,340.2,208.3z"/>
				<path class="st0" d="M358.9,177.4h7.6c6.4,0,10.2,0.9,11.2,2.8c0.6,1,1,1.7,1,2.1v0.2c-0.6,0.5-1,0.9-1,0.9
					c0.6,0,1.1,0.6,1.4,1.9l-0.5,0.7c0.8,0,1.2,0.8,1.2,2.3c0,0.3-0.1,0.4-0.2,0.4l0.2,1.3v10c0,0.3-0.1,0.5-0.2,0.7
					c0.2,0.2,0.2,0.5,0.2,0.8v3.4c0,0.4-0.1,0.6-0.2,0.6l0.2,0.9v5.3c0,3.8-0.5,5.6-1.4,5.6c0,1.4-1.1,2.5-3.3,3.2h-0.7l-0.5-0.2
					c0,0.5-0.5,0.8-1.4,0.8H371c-1.1,0-1.7-0.1-1.7-0.4c-0.7,0.4-1.2,0.6-1.4,0.6c-0.2,0-0.2-0.1-0.2-0.2l-1.2,0.2h-1l-1.4-0.2
					c-0.5,0.1-0.7,0.2-0.7,0.4l-2.3-0.2h-6.7c-0.4,0-0.9-0.1-1.4-0.4c-0.2,0-0.4,0.1-0.7,0.2c-2.2,0-4.2-1.1-5.9-3.4
					c-0.5-0.7-0.7-1.4-0.7-2.3c0-0.2,0.1-0.4,0.2-0.4l-0.2-0.9v-14.5c0-0.5,0.1-1.2,0.2-2.1c-0.2-0.1-0.2-0.6-0.2-1.5l0.2-0.4
					c-0.2-0.2-0.2-0.4-0.2-0.7c0-0.5,0.1-1.2,0.2-2.1l-0.2-0.4c0.2-0.2,0.2-0.4,0.2-0.7l-0.2-0.4l0.2-0.4c-0.2-1.1-0.2-1.9-0.2-2.4
					c0-0.4,0.2-0.8,0.5-1.3c-0.2-0.4-0.2-0.7-0.2-0.7c0.3-1.3,0.6-1.9,1-1.9l-0.2-0.9V183c0-2.2,1.4-3.9,4.3-5.1
					c0.9-0.1,1.5-0.2,1.9-0.2l1.2,0.2C353.9,177.6,355.6,177.4,358.9,177.4z M347.5,196.2c0.1,0.2,0.2,0.4,0.5,0.4h0.2v-0.4H347.5z
					 M348.5,212.4v0.4h0.5v-0.4H348.5z M348.7,217.9v0.5h0.3c0.3,0,0.5-0.1,0.5-0.4l-0.5-0.2H348.7z M350.1,181.3l-0.2,0.9h0.5
					l0.7-0.4c-0.2-0.2-0.2-0.4-0.2-0.5H350.1z M354.2,209.5c-0.3,0.4-0.5,0.8-0.5,1.1v0.2c0,0.2,0.2,0.4,0.7,0.5h0.5
					c0.3-0.5,0.5-0.8,0.5-0.9C355.2,210,354.8,209.7,354.2,209.5z M354.2,215.3v0.4c0.1,0.3,0.2,0.4,0.5,0.4v-0.8H354.2z
					 M354.4,188.5c0.2,0.2,0.2,0.4,0.2,0.5h0.7v-0.5c0-0.3-0.2-0.4-0.5-0.4C354.6,188.2,354.4,188.3,354.4,188.5z M355.6,212.7v1.7
					h0.9c0.3,0,0.5-0.1,0.5-0.4v-0.2l-0.5-0.6c0.4-0.2,0.7-0.4,1-0.4v-0.6h-1.4C355.8,212.3,355.6,212.4,355.6,212.7z M356.5,202.5
					v0.4c0,0.2,0.2,0.4,0.7,0.6l0.2-0.4v-0.2c0-0.2-0.2-0.4-0.5-0.4H356.5z M359.9,185.3c0.2,1.2,0.2,2.2,0.2,2.8v7.4l-0.5,1.3
					c0.3,0,0.5,0.2,0.5,0.4v3.6c0,0.3-0.1,0.5-0.2,0.8c0.2,0.2,0.2,0.5,0.2,0.8v0.9c0,0.2-0.3,0.4-1,0.4l0.7,0.8v0.2
					c0,0.2-0.2,0.4-0.5,0.4c0.2,1.4,0.4,2.2,0.7,2.5v3.9c0,1.6,0.9,2.5,2.6,2.7c1.6,0,2.4-1.1,2.4-3.2v-2.1c0.5-0.3,0.7-0.8,0.7-1.5
					c-0.2,0-0.5-0.2-0.7-0.5v-0.8c0.1-0.2,0.2-0.4,0.5-0.4c-0.3-0.4-0.5-0.8-0.5-1.1v-1.9c0.1-0.2,0.2-0.4,0.5-0.4h0.2l1.4,0.9h0.3
					l-0.3-0.9c0.1-0.3,0.2-0.4,0.5-0.4c0.3,0.1,0.6,0.2,0.9,0.2l0.3-0.4c-1.1-1-1.8-1.5-2.2-1.5c0,0.2-0.2,0.4-0.5,0.4h-0.7
					c-0.3,0-0.5-0.1-0.5-0.4c0-0.3,0.2-0.7,0.5-1.2c-0.3-0.4-0.5-0.7-0.5-0.9c0-0.3,0.1-0.4,0.2-0.4l-0.2-1.9v-4.3
					c0-0.7,0.1-1.6,0.2-2.6c-0.2-0.2-0.2-0.5-0.2-0.8c0.5-0.9,1.1-1.3,1.9-1.3v-0.4c-1.3,0-1.9-0.6-1.9-1.7
					c-0.6-0.8-1.4-1.1-2.2-1.1h-0.7C360.7,183.7,359.9,184.3,359.9,185.3z M359.9,218.7c0.5,0.6,0.7,1,0.7,1.1h1
					c0-0.4,0.7-1.1,2.2-2.1c-0.6-0.1-0.9-0.2-1-0.2l-2.6,1.1H359.9z M366,205.5l0.5,0.2h0.5c0-0.1,0.1-0.5,0.2-1.1H367
					C366.7,204.6,366.3,204.9,366,205.5z M368,218.1c0,0.2,0.4,0.5,1.2,0.9h0.5c0.3,0,0.5-0.1,0.5-0.4v-0.6c0-0.2-0.2-0.4-0.7-0.6
					h-0.7C368.4,217.5,368.2,217.7,368,218.1z M369.6,214.9v0.2h0.5v-0.2H369.6z M370.8,216v0.8c0.1,0.2,0.2,0.4,0.5,0.4h0.7V217
					c0-0.2-0.2-0.6-0.5-1.1C371.2,216,371,216,370.8,216z M372.2,208.5c-0.5,0.6-0.7,1.1-0.7,1.5c0,0.4,0.8,0.7,2.3,0.9
					c0-0.1,0.1-0.2,0.3-0.2c-0.3-0.7-0.8-1.2-1.7-1.7l0.2-0.4L372.2,208.5z M373.2,215.5v0.2c0.1,0.3,0.2,0.4,0.5,0.4v-0.6H373.2z
					 M374.2,197.5v0.4h0.2v-0.4H374.2z M374.6,205.1c0.1,0.3,0.2,0.4,0.5,0.4v-0.4H374.6z M376,215.1l-0.2,0.4l1,0.6h0.5v-0.4
					C377.2,215.4,376.8,215.2,376,215.1z M376.8,193.8v0.2c0.2,0.2,0.2,0.4,0.2,0.5h0.7c0.2,0,0.5-0.2,0.7-0.5v-0.2h-0.2l-0.5,0.2
					C377.4,193.9,377.1,193.8,376.8,193.8z M377.5,200.9l0.7,0.4h0.2v-0.8h-0.5C377.6,200.6,377.5,200.7,377.5,200.9z M378.4,205.3
					l0.5,0.2c0.3,0,0.5-0.1,0.5-0.4l-0.5-0.2C378.6,204.9,378.4,205.1,378.4,205.3z M378.4,214.9v0.4h0.5v-0.4H378.4z"/>
				<path class="st0" d="M397.8,177.6h5.9c6.6,0,10.5,0.9,11.8,2.6c0.8,1.3,1.2,2.8,1.2,4.5v0.4l-1.7,1.1c1.1,0.2,1.7,0.4,1.7,0.7
					v0.6l-1.4,0.7v0.2l1.2-0.2l0.2,0.4v0.5c0,1.9-0.8,2.8-2.3,2.8c-0.6,0-1.3-0.1-1.9-0.2c-2.1,0.1-3.9,0.2-5.4,0.2h-1.9
					c-1.3-0.1-1.9-0.5-1.9-1.3c0.3-1.9,0.9-3.1,1.7-3.6c-0.9,0-1.4-0.7-1.4-2.2c0.4-0.2,1-0.4,1.9-0.6c-0.3-0.6-0.9-0.9-1.9-0.9
					c-0.3,0-0.6,0.1-0.9,0.2l-0.5-0.2c-3.3,0-5,1.3-5,3.9c0,0.5-0.5,1-1.4,1.7v0.5l0.2,0.4c0.3,0,0.7-0.4,1.2-1.1h0.3
					c0.5,1.1,1.2,2.4,2.3,3.9h0.7c3.3,0.8,5,1.6,5,2.3c-0.3,0.8-0.5,1.3-0.5,1.5c0.1,0,0.3,0.1,0.7,0.4c0-0.7,0.4-1.2,1.2-1.5
					c4.5,0.9,7.7,2.4,9.7,4.5c0.8,1.1,1.2,2.7,1.2,4.7c0,0.2-0.1,0.4-0.2,0.4l0.2,1.3v3.9c0,0.5-0.1,1-0.2,1.5
					c0.2,0.5,0.2,1,0.2,1.5v1.9c0,0.7-0.3,1.1-1,1.3l0.5,0.8c-1.2,2.9-4.8,4.3-10.9,4.3h-11.6c-0.4-0.2-1.3-0.4-2.8-0.8l-1.7,0.2
					c-0.6-1-0.9-1.6-0.9-1.9c-0.2,0-0.8,0.4-1.7,1.3c-2.8-0.8-4.3-3.5-4.3-8.2v-4.9c0-2.5,0.7-3.8,2.1-3.8h11.1
					c0.9,0.4,1.4,1.1,1.4,2.1v5.3c0,2.1,0.8,3.2,2.3,3.2h0.3c1.6,0,2.3-1.1,2.3-3.2v-3.9c0-2.3-0.9-3.7-2.6-4.3
					c-3.8-1.1-5.7-2-5.7-2.6l-0.5,0.2c-3.3-0.5-6.4-1.9-9.5-4.3c-0.9-1.8-1.4-3.8-1.4-6c0.6-3.1,1.1-4.7,1.7-4.7l-0.7-0.8v-0.5
					c0.5-0.3,0.9-1.5,1.2-3.4c1.3-1.2,2.5-1.9,3.5-2l1.4,0.2h0.3c0.6,0,1.2-0.3,1.9-0.8h1.9c0.4,0,0.9,0.1,1.4,0.4
					C396.7,177.8,397.3,177.6,397.8,177.6z M390.2,216.8l-0.2,0.4c0.2,0.2,0.2,0.4,0.2,0.5h0.5c0.3,0,0.5-0.1,0.5-0.4V217
					C390.6,216.9,390.3,216.8,390.2,216.8z M392.6,182.7v0.2h0.7v-0.2H392.6z M394.2,218.5v0.7c0.1,0.3,0.2,0.4,0.5,0.4h0.2
					c0-0.1,0.1-0.5,0.2-1.1c-0.2,0-0.2-0.1-0.2-0.2C394.6,218.5,394.4,218.5,394.2,218.5z M395.4,217v0.5c0.1,0.2,0.2,0.4,0.5,0.4
					c0.3,0,0.5-0.1,0.5-0.4v-0.2c0-0.2-0.2-0.4-0.5-0.4H395.4z M395.9,178.9v0.5l1.2-0.2c0-0.2-0.2-0.4-0.5-0.4H395.9z M396.3,194.7
					v0.9h0.2c0.3-0.1,0.6-0.2,0.7-0.2v-0.2C397.3,195.1,397,194.9,396.3,194.7z M398.5,181v0.5h0.5V181H398.5z M398.7,197.5v0.6h0.3
					c0.3,0,0.6-0.1,0.9-0.2c0.3,0.1,0.6,0.2,1,0.2v-0.6c-0.6,0-1-0.2-1-0.7h-0.2C399.4,196.8,399.1,197,398.7,197.5z M399.7,195.4
					v0.2c0.1,0.2,0.2,0.4,0.5,0.4h0.2v-0.2c0-0.2-0.2-0.4-0.5-0.4H399.7z M399.9,179.3v0.6h0.7v-0.6H399.9z M403.7,202
					c0,1,0.6,1.5,1.7,1.5c0,0.5,0.2,0.8,0.5,0.8h0.2c0.5,0,0.7-0.3,0.7-0.8c0-0.2-0.5-0.5-1.4-0.9c0-0.2-0.2-0.4-0.7-0.5H403.7z
					 M405.8,189.1v0.4h0.5v-0.4H405.8z M406.3,180.4v0.6c0.3,0,0.5-0.1,0.5-0.4v-0.2H406.3z M409.3,180.8v0.4c0.3,0,0.5-0.1,0.5-0.4
					H409.3z M409.6,202.2v0.4c0,0.3,0.1,0.5,0.2,0.8c-0.2,0.2-0.2,0.5-0.2,0.7c0,0.1,0.1,0.3,0.2,0.6c-0.2,0.2-0.2,0.5-0.2,0.8
					l0.2,0.4c-0.3,0.4-0.5,0.8-0.5,1.1v0.2c0.1,0.2,0.2,0.4,0.5,0.4c0.3-0.1,0.6-0.2,0.7-0.2v-0.5l-0.2-1.1l0.7-0.9
					c-0.4-1.6-0.8-2.4-1.2-2.4H409.6z M412,181.2v0.4h0.9v-0.2l-0.2-0.4C412.3,181.1,412.1,181.2,412,181.2z M414.3,216.4v0.4h0.5
					c0.3,0,0.5-0.1,0.5-0.4c-0.2,0-0.3-0.1-0.3-0.2C414.7,216.4,414.5,216.4,414.3,216.4z"/>
				<path class="st0" d="M443.3,177.6h22.4c1.7,0,2.6,0.7,2.6,2.1c0.2,0,0.2,0.2,0.2,0.6c-0.5,1.5-1.1,2.3-1.9,2.3
					c-3.8,0-5.7,1.5-5.7,4.4v3c0,1,0.2,2.7,0.7,5.1c0,0.3-0.1,0.5-0.3,0.8c0.3,0.5,0.5,1,0.5,1.5v5.1c0,0.5-0.1,1-0.2,1.5
					c0.2,0.5,0.2,1,0.2,1.5v1.1c0,0.4-0.1,0.6-0.2,0.6l0.2,0.9v2.4c0,1-0.1,1.9-0.2,2.7c0.2,0.6,0.2,1.4,0.2,2.5v0.8
					c0,0.3-0.1,0.5-0.2,0.7c0.2,0.2,0.2,0.5,0.2,0.8v0.6c0,2-0.9,3-2.6,3H450c-1.6,0-2.4-0.6-2.4-1.9c-0.3,0-0.4-0.8-0.5-2.3v-6.6
					l0.5-0.6V210l-0.5-0.6v-7.9c0-0.1,0.5-0.5,1.4-0.9c-0.5,0-1-0.8-1.4-2.3V195c0.6-2.8,0.9-4.5,0.9-4.9v-3.2c0-2.8-1.7-4.2-5-4.2
					c-1.7,0-2.6-0.8-2.6-2.4v-0.4C440.5,178.4,441.4,177.6,443.3,177.6z M450,194.6c0.2,0,0.2,0.1,0.2,0.2c0.7-0.2,1.1-0.4,1.4-0.4
					c-0.2-0.5-0.5-0.8-0.7-0.8C450.6,193.8,450.3,194.1,450,194.6z M450.5,213.9c0.1,0.2,0.2,0.4,0.5,0.4h0.2
					c0.8-0.3,1.2-0.6,1.2-0.7v-0.2h-1.2C451,213.4,450.7,213.6,450.5,213.9z M450.7,182.3v0.4h0.7v-0.4H450.7z M451.2,210v0.5h1.2
					v-0.2c0-0.2-0.2-0.4-0.5-0.4H451.2z M452.6,198.8v0.2h1v-0.7h-0.2C453.1,198.2,452.9,198.4,452.6,198.8z M454.8,193.3l-0.2,0.4
					c0.3,0.4,0.5,0.8,0.5,1.1l1.4-0.2c0.7,0.2,1.1,0.4,1.4,0.4l0.3-0.4v-0.4h-1.2C456.3,194.2,455.6,193.9,454.8,193.3z M456,198.2
					v0.4c0.1,0.2,0.2,0.4,0.5,0.4l0.2-0.4c0-0.2-0.2-0.4-0.5-0.4H456z M460.2,212.8c0.1,0.2,0.2,0.4,0.5,0.4v-0.4H460.2z"/>
				<path class="st0" d="M473.5,177.8h3.6c0.4,0,0.7,0.1,1,0.2c0.3-0.1,0.6-0.2,1-0.2h1.9c1.9,0,2.8,0.8,2.8,2.3v5.6
					c0,0.5-0.1,1-0.2,1.7c0.2,0.2,0.2,0.6,0.2,1.3v0.9c0,0.3-0.1,0.5-0.2,0.8c0,0.2,0.4,1.9,1.2,5.1l-0.2,1.1c0.2,0.5,0.2,1,0.2,1.5
					v0.4l-0.5,0.6c0.3,0,0.5,0.2,0.5,0.4v5.5l-0.7,1.9c0.5,0.6,0.7,1.1,0.7,1.5v1.3c0,2.4,0.6,3.9,1.7,4.3c0.4,0,0.8,0.2,1.4,0.5
					c1.3-0.8,1.9-2,1.9-3.6v-2.3c0.1-0.6,0.2-0.9,0.5-0.9l-0.2-0.9l0.2-0.9c-0.3,0-0.5-0.1-0.5-0.4c0.3-1.1,0.5-1.8,0.5-1.9
					c-0.3-0.4-0.5-0.8-0.5-1.1v-1.7c0-0.7,0.1-1.2,0.3-1.3c-0.2-0.7-0.3-1.2-0.3-1.7v-0.9c0-2.2,0.3-3.6,1-4.2V190
					c1.1-1,1.7-1.8,1.7-2.3h-0.9c0,0.4-0.2,0.6-0.5,0.6l-0.2-0.4c0.2-0.4,0.2-0.7,0.2-0.8c-0.2-0.2-0.2-0.4-0.2-0.6
					c0.3,0,0.5-0.1,0.5-0.4c-0.3-0.8-0.5-1.4-0.5-1.7V180c0-1.5,0.9-2.3,2.8-2.3h7.6c1.4,0,2.2,0.5,2.2,1.5v0.4l-0.3,0.9
					c0.3,0,0.5,0.2,0.5,0.4v7.7l-0.2,1.1l1.2,5.7v19.2c0,4.5-3.9,6.8-11.8,6.8h-7.2l-1.2-1.1c0,0.2-0.5,0.6-1.4,1.1h-3.1l-1.2-0.8
					l-0.7,0.4h-0.7c-3.5-0.7-5.2-1.4-5.2-2.3c-1.1-1-1.7-3-1.7-5.9v-17.2l1-5.3v-10.9c0.1-0.3,0.2-0.4,0.5-0.4l1,0.4
					C472.8,178.4,473.1,177.8,473.5,177.8z M474.5,194.6v0.9c0,0.2-0.3,0.4-1,0.7c0.2,0.6,0.4,0.9,0.7,0.9c0.3,0,0.5-0.1,0.5-0.4
					c-0.2-0.2-0.2-0.4-0.2-0.6c0.8-0.3,1.2-0.8,1.2-1.7c-0.3,0-0.5-0.1-0.5-0.2C474.9,194.5,474.7,194.6,474.5,194.6z M476.9,183.2
					h0.5v-0.4C477,182.9,476.9,183,476.9,183.2z M477.9,195.1l0.5,0.2h0.5c0.5-0.1,0.7-0.5,0.7-1.1V194c0-0.2-0.2-0.4-0.7-0.5h-0.2
					C478.2,193.4,478,194,477.9,195.1z M479,216.2c0,0.2,0.2,0.4,0.5,0.4v-0.4H479z M481.2,194.6c0,0.2-0.3,0.6-1,0.9h0.3
					c0.2,0,0.5-0.3,0.9-0.8v-0.2H481.2z M481.2,181.3v0.4c0,0.2,0.2,0.4,0.7,0.6l0.2-0.4v-0.6H481.2z M482.1,189.8
					c0,0.6,0.2,0.9,0.5,0.9c0.3-0.1,0.6-0.2,0.7-0.2c0-0.2-0.3-0.5-1-0.8H482.1z M493.7,194.2l-0.2,0.8h0.2c0.3-0.1,0.6-0.2,1-0.2
					v-0.2c0-0.3-0.2-0.4-0.5-0.4H493.7z M494.7,197.4v0.2h0.7V197h-0.2C494.9,197,494.7,197.2,494.7,197.4z M494.7,205.3v0.4h0.7
					c0-0.2-0.2-0.4-0.5-0.4H494.7z M495.9,201v0.4c0,0.2,0.4,0.4,1.2,0.6c0.3-0.1,0.6-0.2,0.7-0.2v-0.2c-0.2-0.4-0.7-0.5-1.5-0.5
					H495.9z M497.1,207.4v0.4h0.2v-0.4H497.1z M499.2,185.7c0,0.7-0.2,1.3-0.7,1.7c0.9,0.4,1.8,1.1,2.6,1.9c0.8,0.4,1.4,0.5,1.9,0.5
					c-1.3-1-2.3-2.2-2.8-3.8c-0.4-0.3-0.6-0.4-0.7-0.4H499.2z M500.2,207.6v0.8h0.7c0.3,0,0.5-0.1,0.5-0.4v-0.2L500.2,207.6z
					 M502.1,193.4v0.4c0,0.2,0.2,0.4,0.7,0.6c0.2,0,0.5-0.2,0.7-0.6v-0.4c0-0.3-0.2-0.4-0.5-0.4h-0.5
					C502.2,193.1,502.1,193.2,502.1,193.4z"/>
				<path class="st0" d="M532.7,177.2c0.9,0.9,1.6,1.3,2.2,1.3l-0.2-0.4c0-0.6,1.8-0.9,5.5-0.9h1.5c0.3,0,0.5,0.3,0.5,0.9h0.2
					l0.5-0.2l-0.2-0.4c0.1-0.3,0.2-0.4,0.5-0.4h0.5c0.3,0,0.5,0.2,0.5,0.6h0.5c0-0.4,0.2-0.6,0.5-0.6h6.2c3.1,0,5.8,0.6,8,1.9
					c1.4,1.2,2.2,2.7,2.2,4.6l-0.2,0.9c0.3,0,0.5,0.2,0.5,0.4v0.2l-0.7,0.8c0,0.2,0.4,0.5,1.2,0.9c0.2,1.3,0.2,2.3,0.2,3.1v7.3
					c0,4-1,6.4-3.1,7.2c-1.7,1.2-4.3,1.7-7.7,1.7c-1.1-0.1-1.8-0.2-1.9-0.2c-0.3,0.1-0.6,0.2-1,0.2V206l-0.5,0.2h-2.2
					c-2.4,0-3.6,0.9-3.6,2.8v8.8c0,2.3-0.6,3.5-1.7,3.5c0,0.1-0.2,0.2-0.7,0.2H531c-2.4,0-3.6-0.6-3.6-1.9c0.2-1.3,0.2-2.3,0.2-3.1
					v-1.7c0-0.4-0.1-0.6-0.2-0.6l0.2-0.9v-3.8c0-0.5,0.4-1.2,1.2-1.9V207c-0.8,0-1.2-0.8-1.2-2.5v-9.3c0-0.2,0.2-0.9,0.5-1.9
					c-0.3-0.4-0.5-0.8-0.5-1.1v-1.3c1.1-0.7,1.7-1.1,1.7-1.3c-1.1,0-1.7-0.1-1.7-0.4v-2.5l0.7-0.9c0-0.1-0.1-0.2-0.2-0.2
					c0.3-1.3,0.5-2.2,0.5-2.5l-0.2-1c0-3.2,0.8-4.8,2.4-4.8H532.7z M531.2,210.8v0.4c0.1,0.3,0.2,0.4,0.5,0.4h0.5v-0.4
					c0-0.2-0.2-0.4-0.5-0.4H531.2z M531.2,213.9v0.4h0.7c0.3,0,0.5-0.1,0.5-0.4v-0.2c0-0.3-0.2-0.4-0.5-0.4
					C531.7,213.3,531.5,213.5,531.2,213.9z M531.7,190.2c0.7,1,1.2,1.5,1.4,1.5h0.5l0.2-0.9c-0.5,0-1.1-0.2-1.7-0.6H531.7z
					 M532.2,181.6v0.4c0.2,0,1.1,0.1,2.7,0.4v-0.2c0-0.2-0.2-0.4-0.7-0.6l-1.2,0.2C532.6,181.7,532.3,181.6,532.2,181.6z
					 M533.9,213.9h0.5v-0.4C534,213.5,533.9,213.7,533.9,213.9z M536,198.2v0.6c1.1-0.3,1.7-0.8,1.7-1.5c0.3,0,0.5-0.1,0.5-0.4h-0.5
					L536,198.2z M536.7,177.6v0.2c0.1,0.2,0.2,0.4,0.5,0.4V178C537.2,177.7,537,177.6,536.7,177.6z M537,183.1v0.2
					c0.1,0.3,0.2,0.4,0.5,0.4v-0.6H537z M539.4,189.6l-0.3,0.4l0.5,0.2h0.2V190C539.9,189.8,539.7,189.6,539.4,189.6z M540.6,186.2
					v0.2c1,0,1.5,0.3,1.5,0.9c0.2,0.6,0.2,1.5,0.2,2.5v4.8c0,0.5-0.1,1-0.2,1.7l0.2,0.4l-0.2,0.4c0.8,1.3,1.6,1.9,2.4,1.9
					c1.9,0,2.9-1.7,2.9-5.2c0-1.9,0.5-3.1,1.5-3.6c0-0.1-0.5-0.5-1.5-0.9V187c0-0.5,0.2-1.1,0.5-1.5c-0.8-1.6-2-2.5-3.6-2.5h-0.5
					c-1.3,0.3-1.9,1.4-1.9,3.1C541.5,186.1,541.1,186.2,540.6,186.2z M540.8,187.5v0.5h0.2c0.2,0,0.5-0.2,0.7-0.5H540.8z
					 M540.8,199.2c0.5,0.3,0.9,0.4,1.2,0.4l0.2-0.4v-0.4c0-0.2-0.2-0.4-0.7-0.6C541.2,198.2,540.9,198.5,540.8,199.2z M542.7,199.9
					c0.1,0,0.3,0.1,0.7,0.4l0.2-0.4c0-0.2-0.2-0.4-0.5-0.4C542.9,199.6,542.7,199.7,542.7,199.9z M547.1,180.8v0.2h0.5v-0.2H547.1z
					 M550.4,188.3v0.9c0.1,0.3,0.2,0.4,0.5,0.4c0-0.5,0.2-0.8,0.5-0.8c0,0.2,0.2,0.4,0.7,0.5h0.7v-0.4
					C552.9,188.7,552,188.4,550.4,188.3z M553.1,193.1v0.2l0.2,1c-0.3,0.1-0.5,0.2-0.7,0.2v0.2h0.7l1-0.9v-0.2
					c0-0.3-0.2-0.4-0.5-0.4H553.1z M553.1,178.9v0.6c0,0.2,0.2,0.4,0.7,0.6c0.2,0,0.5-0.2,0.7-0.6c-0.2-0.2-0.3-0.4-0.3-0.6H553.1z
					 M553.8,181c0.1,0.3,0.2,0.4,0.5,0.4V181H553.8z M556.2,197.5v0.4h0.2c0.2,0,0.5-0.2,0.7-0.5v-0.2h-0.5
					C556.4,197.1,556.2,197.2,556.2,197.5z M556.5,183.9v0.4h0.5v-0.4H556.5z M556.9,195.2v0.6h0.5v-0.2
					C557.4,195.3,557.3,195.2,556.9,195.2z M559.1,189.8v0.4c0.6,0.9,1,1.3,1.2,1.3h0.5v-0.2l-0.7-0.8v-1.2h-0.5
					C559.3,189.5,559.1,189.6,559.1,189.8z M559.1,199.3v0.4h0.5v-0.4H559.1z M559.8,193.2l-0.5,0.6c0,0.2,0.2,0.4,0.7,0.6h0.5v-0.6
					C560.6,193.6,560.3,193.4,559.8,193.2z"/>
				<path class="st0" d="M575.9,177.8h2.4l1.2,0.9h0.5c0-0.4,0.3-0.7,1-0.9h3.5c0.4,0,0.7,0.1,1,0.2c0.3-0.1,0.6-0.2,1-0.2h0.7
					c2,0,3.2,1.3,3.6,4c0,0.6,0.6,3.5,1.7,8.9H592c0.9,1.9,1.4,3.1,1.4,3.6c0,0.3-0.2,0.4-0.7,0.4v0.2c1.3,0,1.9,1,1.9,3
					c0.1,0,0.4,1.6,1,4.9c-0.8,0.2-1.2,0.4-1.2,0.6c1.1,0.5,1.7,0.8,1.7,0.9c0,0.7,0.9,5.3,2.6,13.8c-0.3,0.4-0.5,0.7-0.5,0.9
					c0.3,0,0.6,0.3,0.9,0.9c0,1.1-1,1.7-3.1,1.7h-7.6c-2.4,0-3.5-1.6-3.5-4.7l-0.2-1.7c0.8,0,1.4-0.4,1.9-1.3
					c-0.2-0.6-0.4-0.9-0.7-0.9c-0.5,1-0.7,1.6-0.7,1.7h-0.7c0-1-1.1-1.6-3.3-1.9c-2.4,0-3.6,1.4-3.6,4.3c-0.3,0.1-0.6,0.2-0.9,0.2
					v0.4l0.5,0.6v1.1c0,1.5-0.9,2.3-2.8,2.3h-1l-1-0.6c-0.7,0.4-1.2,0.6-1.4,0.6c-1.1,0-3.2-0.1-6.4-0.2l-0.7-0.8v-0.8
					c0-1.5,2.3-13,6.9-34.5c0.9-1.3,1.7-3.5,2.4-6.6C573.9,178.1,574.8,177.8,575.9,177.8z M566.1,213.6v1.1h0.2
					c0.2,0,0.5-0.2,0.7-0.6c-0.2-0.2-0.2-0.4-0.2-0.5H566.1z M567.1,209.3c0,0.1-0.1,0.3-0.2,0.5l0.5,0.2l0.2-0.4v-0.4H567.1z
					 M573.2,204.4c0.3,0,0.6,0.3,1,0.8v0.9c0.3,0,0.5,0.1,0.5,0.2c0.6-0.1,1-0.2,1-0.4c-0.3-0.5-0.8-1.1-1.4-1.7
					c0.2-0.2,0.2-0.4,0.2-0.6l-0.5-0.2C573.7,203.4,573.4,203.7,573.2,204.4z M577.5,205.7c0.2,1,0.4,1.5,0.7,1.5h0.2
					c0.2,0,0.5-0.2,0.7-0.6v-0.2c0-0.7-0.2-1-0.7-1.1H578C577.7,205.3,577.5,205.5,577.5,205.7z M578.7,184.4h0.5V184
					C578.9,184,578.7,184.2,578.7,184.4z M579.2,204.2c0.3,0.9,1,1.5,1.9,1.9h0.2c0-0.4,0.7-1.1,2.2-2.1c-0.2-0.7-0.3-1.2-0.3-1.5
					l0.3-0.9c-0.3,0-0.7-1.9-1.2-5.6c-0.6-0.5-1-0.7-1.2-0.8C579.8,195.1,579.2,198.1,579.2,204.2z M582.1,209.8l-0.3,0.9h0.3
					c0.2,0,0.4-0.2,0.7-0.6c0-0.2-0.2-0.4-0.5-0.4H582.1z M583.2,179.3c0.3,0.6,0.6,0.9,1,0.9l0.2-0.4v-0.8h-0.7L583.2,179.3z
					 M583.7,193.8v0.4c0.1,0.3,0.2,0.4,0.5,0.4h0.5v-1.3h-0.3C584.2,193.2,583.9,193.4,583.7,193.8z M584.7,210.8v0.4h0.2v-0.4
					H584.7z M587,212.1v0.4h0.5v-0.4H587z M588,187.4v0.4h0.5C588.4,187.5,588.3,187.4,588,187.4z M588.2,210v0.8
					c0.3-0.1,0.6-0.2,0.7-0.2v-0.2c0-0.3-0.2-0.4-0.5-0.4H588.2z M590.6,211.1v0.4c0.4,0.9,0.8,1.3,1,1.3h0.5v-0.2
					c-0.5-0.6-0.7-1.1-0.7-1.5H590.6z M593.2,205.8c0.2,0.2,0.2,0.4,0.2,0.6h0.5c0.3,0,0.5-0.1,0.5-0.4v-0.2H593.2z"/>
				<path class="st0" d="M614.6,177.6h5.9c6.6,0,10.5,0.9,11.8,2.6c0.8,1.3,1.2,2.8,1.2,4.5v0.4l-1.7,1.1c1.1,0.2,1.7,0.4,1.7,0.7
					v0.6l-1.4,0.7v0.2l1.2-0.2l0.2,0.4v0.5c0,1.9-0.8,2.8-2.3,2.8c-0.6,0-1.3-0.1-1.9-0.2c-2.1,0.1-3.9,0.2-5.4,0.2h-1.9
					c-1.3-0.1-1.9-0.5-1.9-1.3c0.3-1.9,0.9-3.1,1.7-3.6c-0.9,0-1.4-0.7-1.4-2.2c0.4-0.2,1-0.4,1.9-0.6c-0.3-0.6-0.9-0.9-1.9-0.9
					c-0.3,0-0.6,0.1-0.9,0.2l-0.5-0.2c-3.3,0-5,1.3-5,3.9c0,0.5-0.5,1-1.4,1.7v0.5l0.2,0.4c0.3,0,0.7-0.4,1.2-1.1h0.3
					c0.5,1.1,1.2,2.4,2.3,3.9h0.7c3.3,0.8,5,1.6,5,2.3c-0.3,0.8-0.5,1.3-0.5,1.5c0.1,0,0.3,0.1,0.7,0.4c0-0.7,0.4-1.2,1.2-1.5
					c4.5,0.9,7.7,2.4,9.7,4.5c0.8,1.1,1.2,2.7,1.2,4.7c0,0.2-0.1,0.4-0.2,0.4l0.2,1.3v3.9c0,0.5-0.1,1-0.2,1.5
					c0.2,0.5,0.2,1,0.2,1.5v1.9c0,0.7-0.3,1.1-1,1.3l0.5,0.8c-1.2,2.9-4.8,4.3-10.9,4.3h-11.6c-0.4-0.2-1.3-0.4-2.8-0.8L607,221
					c-0.6-1-0.9-1.6-0.9-1.9c-0.2,0-0.8,0.4-1.7,1.3c-2.8-0.8-4.3-3.5-4.3-8.2v-4.9c0-2.5,0.7-3.8,2.1-3.8h11.1
					c0.9,0.4,1.4,1.1,1.4,2.1v5.3c0,2.1,0.8,3.2,2.3,3.2h0.3c1.6,0,2.3-1.1,2.3-3.2v-3.9c0-2.3-0.9-3.7-2.6-4.3
					c-3.8-1.1-5.7-2-5.7-2.6l-0.5,0.2c-3.3-0.5-6.4-1.9-9.5-4.3c-0.9-1.8-1.4-3.8-1.4-6c0.6-3.1,1.1-4.7,1.7-4.7l-0.7-0.8v-0.5
					c0.5-0.3,0.9-1.5,1.2-3.4c1.3-1.2,2.5-1.9,3.5-2l1.4,0.2h0.3c0.6,0,1.2-0.3,1.9-0.8h1.9c0.4,0,0.9,0.1,1.4,0.4
					C613.4,177.8,614.1,177.6,614.6,177.6z M607,216.8l-0.2,0.4c0.2,0.2,0.2,0.4,0.2,0.5h0.5c0.3,0,0.5-0.1,0.5-0.4V217
					C607.4,216.9,607.1,216.8,607,216.8z M609.4,182.7v0.2h0.7v-0.2H609.4z M611,218.5v0.7c0.1,0.3,0.2,0.4,0.5,0.4h0.2
					c0-0.1,0.1-0.5,0.2-1.1c-0.2,0-0.2-0.1-0.2-0.2C611.4,218.5,611.2,218.5,611,218.5z M612.2,217v0.5c0.1,0.2,0.2,0.4,0.5,0.4
					c0.3,0,0.5-0.1,0.5-0.4v-0.2c0-0.2-0.2-0.4-0.5-0.4H612.2z M612.7,178.9v0.5l1.2-0.2c0-0.2-0.2-0.4-0.5-0.4H612.7z M613.1,194.7
					v0.9h0.2c0.3-0.1,0.6-0.2,0.7-0.2v-0.2C614.1,195.1,613.8,194.9,613.1,194.7z M615.2,181v0.5h0.5V181H615.2z M615.5,197.5v0.6
					h0.3c0.3,0,0.6-0.1,0.9-0.2c0.3,0.1,0.6,0.2,1,0.2v-0.6c-0.6,0-1-0.2-1-0.7h-0.2C616.2,196.8,615.9,197,615.5,197.5z
					 M616.4,195.4v0.2c0.1,0.2,0.2,0.4,0.5,0.4h0.2v-0.2c0-0.2-0.2-0.4-0.5-0.4H616.4z M616.7,179.3v0.6h0.7v-0.6H616.7z M620.4,202
					c0,1,0.6,1.5,1.7,1.5c0,0.5,0.2,0.8,0.5,0.8h0.2c0.5,0,0.7-0.3,0.7-0.8c0-0.2-0.5-0.5-1.4-0.9c0-0.2-0.2-0.4-0.7-0.5H620.4z
					 M622.6,189.1v0.4h0.5v-0.4H622.6z M623.1,180.4v0.6c0.3,0,0.5-0.1,0.5-0.4v-0.2H623.1z M626.1,180.8v0.4c0.3,0,0.5-0.1,0.5-0.4
					H626.1z M626.4,202.2v0.4c0,0.3,0.1,0.5,0.2,0.8c-0.2,0.2-0.2,0.5-0.2,0.7c0,0.1,0.1,0.3,0.2,0.6c-0.2,0.2-0.2,0.5-0.2,0.8
					l0.2,0.4c-0.3,0.4-0.5,0.8-0.5,1.1v0.2c0.1,0.2,0.2,0.4,0.5,0.4c0.3-0.1,0.6-0.2,0.7-0.2v-0.5l-0.2-1.1l0.7-0.9
					c-0.4-1.6-0.8-2.4-1.2-2.4H626.4z M628.7,181.2v0.4h0.9v-0.2l-0.2-0.4C629.1,181.1,628.9,181.2,628.7,181.2z M631.1,216.4v0.4
					h0.5c0.3,0,0.5-0.1,0.5-0.4c-0.2,0-0.3-0.1-0.3-0.2C631.5,216.4,631.3,216.4,631.1,216.4z"/>
				<path class="st0" d="M641.5,177.8h4.5c0.6,0,1.3,0.1,2.2,0.2c0.3-0.1,0.6-0.2,0.9-0.2c0.3,0,1,0.5,2.2,1.5
					c-0.2,0.2-0.2,0.4-0.2,0.6c0.2,0,0.2,0.1,0.2,0.2l-0.5,0.2c-0.3-0.5-0.5-0.7-0.7-0.7h-0.2c-0.3,0-0.5,0.2-0.5,0.4
					c0.3,0,1,0.6,2.1,1.7v1.3c0,0.4-0.1,0.7-0.2,0.9l0.2,1.1v3.4c0.6,2.1,1,3.4,1,4v12.2c0,0.2-0.2,0.4-0.7,0.4l0.7,0.8v0.9
					c0,0.7-0.1,1.1-0.2,1.3c0.2,0.7,0.2,1.3,0.2,1.7v0.8c0,0.4-0.1,1-0.2,1.7c0.2,0.2,0.2,0.6,0.2,1.1c0,0.5-0.2,0.8-0.5,0.8
					c0.3,0.4,0.5,0.8,0.5,1.1v4.2c0,1.5-1.2,2.3-3.6,2.3h-8.1c-2.1,0-3.1-0.7-3.1-2.1v-8.5c0-0.3,0.1-0.5,0.2-0.8
					c-0.2-0.2-0.2-0.4-0.2-0.7v-0.2c0.6-0.7,1-1.2,1-1.3c-0.3,0-0.6-0.2-1-0.7c0-0.5,0.1-0.8,0.2-0.8l-0.2-1.3v-6.4
					c0-0.4,0.1-0.7,0.2-0.9l-0.2-1.1v-4.3c0.6-2.8,1-4.5,1-4.9V180C638.7,178.5,639.6,177.8,641.5,177.8z M639.1,204v0.2
					c0.1,0.2,0.2,0.4,0.5,0.4h0.5v-0.2c0-0.2-0.2-0.4-0.5-0.4H639.1z M640.6,187.2l0.5,0.2h0.3v-0.6H641
					C640.7,186.8,640.6,187,640.6,187.2z M642.7,186.4l0.2,0.4c1.4-0.2,2.1-0.5,2.1-0.7v-0.6C643.5,185.8,642.7,186.1,642.7,186.4z
					 M645.1,193.6v0.4h0.3c0.3,0,0.5-0.1,0.5-0.4H645.1z M646.2,205.5c0,0.1-0.1,0.2-0.2,0.2c0.1,0.8,0.3,1.1,0.5,1.1
					c0.9-0.1,1.4-0.3,1.4-0.5v-0.6L646.2,205.5z M646.5,184.5v0.2c0,0.6,0.7,1.2,2.1,1.9v0.9c0.3,0,0.8,0.3,1.7,0.9h0.5
					c0-0.2-0.6-0.6-1.9-1.3c0.5-0.8,0.9-1.1,1-1.1c0-0.2-0.4-0.5-1.2-0.9c0.4-0.6,1.2-0.9,2.2-0.9V184c0-0.3-0.2-0.4-0.5-0.4
					C648.7,183.9,647.5,184.2,646.5,184.5z M646.5,198.3v0.2c0,0.3,0.2,0.4,0.5,0.4h0.2v-0.6H646.5z M648.4,201.5l-0.2,0.4v0.5h0.2
					c0.3,0,0.5-0.1,0.5-0.4v-0.2C648.9,201.6,648.7,201.5,648.4,201.5z M648.2,204.5h0.2c0.3,0,0.5-0.1,0.5-0.4h-0.2
					C648.3,204.2,648.2,204.3,648.2,204.5z M648.4,214v0.2l1.4,0.2c0-0.1,0.1-0.2,0.2-0.2l-0.5-0.8
					C648.8,213.6,648.4,213.7,648.4,214z"/>
				<path class="st0" d="M670.1,177.4h7.6c6.4,0,10.2,0.9,11.2,2.8c0.6,1,1,1.7,1,2.1v0.2c-0.6,0.5-1,0.9-1,0.9
					c0.6,0,1.1,0.6,1.4,1.9l-0.5,0.7c0.8,0,1.2,0.8,1.2,2.3c0,0.3-0.1,0.4-0.2,0.4l0.2,1.3v10c0,0.3-0.1,0.5-0.2,0.7
					c0.2,0.2,0.2,0.5,0.2,0.8v3.4c0,0.4-0.1,0.6-0.2,0.6l0.2,0.9v5.3c0,3.8-0.5,5.6-1.4,5.6c0,1.4-1.1,2.5-3.3,3.2h-0.7l-0.5-0.2
					c0,0.5-0.5,0.8-1.4,0.8h-1.4c-1.1,0-1.7-0.1-1.7-0.4c-0.7,0.4-1.2,0.6-1.4,0.6c-0.2,0-0.2-0.1-0.2-0.2l-1.2,0.2h-1l-1.4-0.2
					c-0.5,0.1-0.7,0.2-0.7,0.4l-2.3-0.2h-6.7c-0.4,0-0.9-0.1-1.4-0.4c-0.2,0-0.4,0.1-0.7,0.2c-2.2,0-4.2-1.1-5.9-3.4
					c-0.5-0.7-0.7-1.4-0.7-2.3c0-0.2,0.1-0.4,0.2-0.4l-0.2-0.9v-14.5c0-0.5,0.1-1.2,0.2-2.1c-0.2-0.1-0.2-0.6-0.2-1.5l0.2-0.4
					c-0.2-0.2-0.2-0.4-0.2-0.7c0-0.5,0.1-1.2,0.2-2.1l-0.2-0.4c0.2-0.2,0.2-0.4,0.2-0.7l-0.2-0.4l0.2-0.4c-0.2-1.1-0.2-1.9-0.2-2.4
					c0-0.4,0.2-0.8,0.5-1.3c-0.2-0.4-0.2-0.7-0.2-0.7c0.3-1.3,0.6-1.9,1-1.9l-0.2-0.9V183c0-2.2,1.4-3.9,4.3-5.1
					c0.9-0.1,1.5-0.2,1.9-0.2l1.2,0.2C665.1,177.6,666.8,177.4,670.1,177.4z M658.7,196.2c0.1,0.2,0.2,0.4,0.5,0.4h0.2v-0.4H658.7z
					 M659.6,212.4v0.4h0.5v-0.4H659.6z M659.9,217.9v0.5h0.3c0.3,0,0.5-0.1,0.5-0.4l-0.5-0.2H659.9z M661.3,181.3l-0.2,0.9h0.5
					l0.7-0.4c-0.2-0.2-0.2-0.4-0.2-0.5H661.3z M665.3,209.5c-0.3,0.4-0.5,0.8-0.5,1.1v0.2c0,0.2,0.2,0.4,0.7,0.5h0.5
					c0.3-0.5,0.5-0.8,0.5-0.9C666.4,210,666,209.7,665.3,209.5z M665.3,215.3v0.4c0.1,0.3,0.2,0.4,0.5,0.4v-0.8H665.3z M665.6,188.5
					c0.2,0.2,0.2,0.4,0.2,0.5h0.7v-0.5c0-0.3-0.2-0.4-0.5-0.4C665.8,188.2,665.6,188.3,665.6,188.5z M666.8,212.7v1.7h0.9
					c0.3,0,0.5-0.1,0.5-0.4v-0.2l-0.5-0.6c0.4-0.2,0.7-0.4,1-0.4v-0.6h-1.4C666.9,212.3,666.8,212.4,666.8,212.7z M667.7,202.5v0.4
					c0,0.2,0.2,0.4,0.7,0.6l0.2-0.4v-0.2c0-0.2-0.2-0.4-0.5-0.4H667.7z M677.3,176.8c-4.6,0.3-6.9,0.1-7-0.6l-0.1-0.5
					c-0.1-1.4,1.4-3.1,4.7-5c0.4,0.1,0.9,0.2,1.4,0.2c0.1-0.6,1-0.9,2.7-1l1.4-0.1c1.9-0.1,3.2,0.4,4,1.7l0,0.2
					c0.3,2.6-1.9,4.3-6.4,5.1L677.3,176.8z M671.1,185.3c0.2,1.2,0.2,2.2,0.2,2.8v7.4l-0.5,1.3c0.3,0,0.5,0.2,0.5,0.4v3.6
					c0,0.3-0.1,0.5-0.2,0.8c0.2,0.2,0.2,0.5,0.2,0.8v0.9c0,0.2-0.3,0.4-1,0.4l0.7,0.8v0.2c0,0.2-0.2,0.4-0.5,0.4
					c0.2,1.4,0.4,2.2,0.7,2.5v3.9c0,1.6,0.9,2.5,2.6,2.7c1.6,0,2.4-1.1,2.4-3.2v-2.1c0.5-0.3,0.7-0.8,0.7-1.5
					c-0.2,0-0.5-0.2-0.7-0.5v-0.8c0.1-0.2,0.2-0.4,0.5-0.4c-0.3-0.4-0.5-0.8-0.5-1.1v-1.9c0.1-0.2,0.2-0.4,0.5-0.4h0.2l1.4,0.9h0.3
					l-0.3-0.9c0.1-0.3,0.2-0.4,0.5-0.4c0.3,0.1,0.6,0.2,0.9,0.2l0.3-0.4c-1.1-1-1.8-1.5-2.2-1.5c0,0.2-0.2,0.4-0.5,0.4h-0.7
					c-0.3,0-0.5-0.1-0.5-0.4c0-0.3,0.2-0.7,0.5-1.2c-0.3-0.4-0.5-0.7-0.5-0.9c0-0.3,0.1-0.4,0.2-0.4l-0.2-1.9v-4.3
					c0-0.7,0.1-1.6,0.2-2.6c-0.2-0.2-0.2-0.5-0.2-0.8c0.5-0.9,1.1-1.3,1.9-1.3v-0.4c-1.3,0-1.9-0.6-1.9-1.7
					c-0.6-0.8-1.4-1.1-2.2-1.1h-0.7C671.9,183.7,671.1,184.3,671.1,185.3z M671.1,218.7c0.5,0.6,0.7,1,0.7,1.1h1
					c0-0.4,0.7-1.1,2.2-2.1c-0.6-0.1-0.9-0.2-1-0.2l-2.6,1.1H671.1z M677.2,205.5l0.5,0.2h0.5c0-0.1,0.1-0.5,0.2-1.1h-0.2
					C677.8,204.6,677.5,204.9,677.2,205.5z M679.1,218.1c0,0.2,0.4,0.5,1.2,0.9h0.5c0.3,0,0.5-0.1,0.5-0.4v-0.6
					c0-0.2-0.2-0.4-0.7-0.6h-0.7C679.6,217.5,679.4,217.7,679.1,218.1z M680.8,214.9v0.2h0.5v-0.2H680.8z M682,216v0.8
					c0.1,0.2,0.2,0.4,0.5,0.4h0.7V217c0-0.2-0.2-0.6-0.5-1.1C682.4,216,682.2,216,682,216z M683.4,208.5c-0.5,0.6-0.7,1.1-0.7,1.5
					c0,0.4,0.8,0.7,2.3,0.9c0-0.1,0.1-0.2,0.3-0.2c-0.3-0.7-0.8-1.2-1.7-1.7l0.2-0.4L683.4,208.5z M684.4,215.5v0.2
					c0.1,0.3,0.2,0.4,0.5,0.4v-0.6H684.4z M685.3,197.5v0.4h0.2v-0.4H685.3z M685.8,205.1c0.1,0.3,0.2,0.4,0.5,0.4v-0.4H685.8z
					 M687.2,215.1l-0.2,0.4l1,0.6h0.5v-0.4C688.4,215.4,688,215.2,687.2,215.1z M687.9,193.8v0.2c0.2,0.2,0.2,0.4,0.2,0.5h0.7
					c0.2,0,0.5-0.2,0.7-0.5v-0.2h-0.2l-0.5,0.2C688.6,193.9,688.3,193.8,687.9,193.8z M688.6,200.9l0.7,0.4h0.2v-0.8h-0.5
					C688.8,200.6,688.6,200.7,688.6,200.9z M689.6,205.3l0.5,0.2c0.3,0,0.5-0.1,0.5-0.4l-0.5-0.2
					C689.8,204.9,689.6,205.1,689.6,205.3z M689.6,214.9v0.4h0.5v-0.4H689.6z"/>
				<path class="st0" d="M698.3,177.8h2.4c0.3,0,0.6,0.1,0.9,0.2c0.3-0.1,0.6-0.2,1-0.2h2.8c2.2,0,3.4,1.2,3.8,3.6
					c0.2,1.1,0.5,2.1,1,2.8l-0.7,0.9c1.5,0.7,2.4,1.7,2.8,3c1,3.5,1.9,5.3,2.6,5.3c0.8,0,1.2-2,1.2-5.9c0.6-2,1-3.5,1-4.3V180
					c0-1.5,0.9-2.3,2.8-2.3h2.2c3.8,0,5.7,0.4,5.7,1.1c0,0.1,0.1,0.3,0.2,0.8c-0.3,0.4-0.5,1-0.5,1.7c0.3,0.4,0.5,0.8,0.5,1.1
					c0,0.1-0.1,0.3-0.2,0.6c0.2,0.2,0.2,0.5,0.2,0.8v0.2l-0.2,0.9c0.8,0,1.2,2.6,1.2,7.7c0,0.3-0.3,0.7-1,1.3c0.3,0,0.6,0.4,1,1.1
					c-0.1,0.5-0.3,0.8-0.5,0.8c0.3,0.4,0.5,0.8,0.5,1.1c-0.3,0.9-0.5,1.4-0.5,1.5v0.2l0.5,0.5v19c0,2.1-0.9,3.2-2.6,3.2h-1
					c-0.5,0-0.9-0.1-1.2-0.2l-1.4,0.2h-0.7c-0.5,0-0.7-0.1-0.7-0.2l-1.2,0.2h-4.3c-2.4-1.3-3.6-2.9-3.6-4.9c0.2-0.4,0.3-0.5,0.5-0.5
					c0-0.4-0.6-1.4-1.7-3l-2.6-8.5l-0.9-0.8h-0.2l-0.5,0.2l0.2,0.9c0,0.6-0.2,1.3-0.7,1.9c0.2,1.8,0.2,3.3,0.2,4.5
					c0,0.5-1.4,1.4-4.3,2.7c0,0.3,0.4,0.5,1.2,0.5c0-0.2,0.9-0.4,2.6-0.7l0.2,0.4v1.1l-2.2,0.9c0,0.1-0.1,0.2-0.2,0.2h-0.7l-0.5-0.2
					v0.8l1.7-0.2h0.3c0.8,0,1.4,0.2,1.7,0.7v2.3c0,1.1-0.9,1.7-2.6,1.7h-4.3l-1.7-0.4l-0.9,0.4c-0.8,0-1.6-0.4-2.2-1.1v-1.3
					c0-0.7-0.1-1.6-0.2-2.7c0-0.1,0.1-0.2,0.2-0.2l-0.2-1.9v-3.9c0-0.7,0.1-1.2,0.2-1.7c-0.2-0.7-0.2-1.3-0.2-1.9v-4.2
					c0-0.2,0.5-0.4,1.4-0.5v-0.6l-1.4-1.1c0.3-0.3,0.5-0.5,0.5-0.5c-0.2-0.2-0.2-0.5-0.2-0.8c0.3-0.1,0.6-0.2,0.7-0.2l1.2,0.2v-0.4
					c-1.1-0.6-1.8-1.3-2.2-2.3v-8.3l1-4.5V180C695.5,178.5,696.4,177.8,698.3,177.8z M695.9,196.6v0.2h0.5c0.3,0,0.5-0.1,0.5-0.4
					l-0.5-0.2C696.1,196.3,695.9,196.4,695.9,196.6z M695.9,216.6v0.2h0.2c1.3,0,2-0.4,2.2-1.1C696.7,216.2,695.9,216.5,695.9,216.6
					z M697.4,218.1c0.3,0.4,0.5,0.7,0.5,0.9h0.7c0-0.5,0.9-0.8,2.6-0.8c0-0.2-0.5-0.5-1.4-0.9h-1
					C697.8,217.4,697.4,217.6,697.4,218.1z M697.6,204.2v0.4c0.1,0.2,0.2,0.4,0.5,0.4h0.5v-0.7H697.6z M698.6,201.5
					c0.1,0.3,0.2,0.4,0.5,0.4l0.3-0.4v-0.4H699C698.7,201.2,698.6,201.3,698.6,201.5z M700.9,209.6c0.1,0.2,0.2,0.4,0.5,0.4h0.2
					v-0.4H700.9z M701.4,202.3c0.1,0.2,0.2,0.4,0.5,0.4v-0.4H701.4z M702.8,199.4v0.4h0.2v-0.4H702.8z M705.2,195.9
					c0.1,0.2,0.2,0.4,0.5,0.4h0.2v-0.4H705.2z M709.9,189.8c0.1,0.3,0.2,0.4,0.5,0.4h1c0.3,0,0.5-0.1,0.5-0.4v-0.4h-1.4
					C710.1,189.5,709.9,189.6,709.9,189.8z M711.4,197.4v0.4c0,0.2,0.3,0.4,0.9,0.7v-0.7c0-0.3-0.2-0.4-0.5-0.4H711.4z M711.9,209.1
					h0.5c0.3,0,0.5-0.1,0.5-0.4h-0.5C712,208.7,711.9,208.9,711.9,209.1z M713.1,202.9v0.2c0.1,0.2,0.2,0.4,0.5,0.4h0.2v-0.2
					c0-0.2-0.2-0.4-0.5-0.4H713.1z M714.7,195.3v0.9h0.5l0.5-0.2c-0.3-0.5-0.5-0.8-0.7-0.8H714.7z M715.9,193.8v0.4
					c0,0.1,0.2,0.6,0.5,1.5l-0.5,0.5c0.1,0.3,0.2,0.4,0.5,0.4h0.5c0.4-0.3,0.8-0.4,1.2-0.4l-0.7-2.8h-0.5
					C716.5,193.7,716.2,193.8,715.9,193.8z M716.1,204.2v0.4c0,0.2,0.2,0.4,0.7,0.6h0.2v-0.9H716.1z M717.1,200.6
					c0.1,0.3,0.2,0.4,0.5,0.4h0.2v-0.4H717.1z M718,215.5c0,0.4-0.1,0.6-0.2,0.6c0.2,0.2,0.2,0.4,0.2,0.5h0.3c0.3,0,0.5-0.2,0.5-0.5
					c-0.2-0.2-0.2-0.4-0.2-0.6H718z M718.5,198.1c0.2,0.5,0.5,0.8,0.7,0.8v-0.4c0-0.2-0.2-0.4-0.5-0.4H718.5z M720.2,202.9
					c0,0.7-0.3,1.2-1,1.7v0.6h0.5c0-0.5,0.9-0.9,2.6-1.3v-0.4c0-0.2-0.2-0.4-0.5-0.4l-0.9,0.5c-0.3,0-0.5-0.2-0.5-0.7H720.2z
					 M722.3,214.9v0.4h0.5C722.8,215,722.6,214.9,722.3,214.9z M723.5,216c0,0.4-0.2,1.4-0.7,3h0.2c1.5-0.4,2.3-0.7,2.4-0.9v-0.2
					c0-0.3-0.5-0.4-1.4-0.4v-0.2l0.7-0.8v-0.2c0-0.2-0.2-0.4-0.5-0.4H723.5z M724.2,206.8l-0.2,0.4l0.5,0.2h0.2v-0.2
					C724.7,206.9,724.5,206.8,724.2,206.8z M726.1,205.1h0.5v-0.4C726.3,204.8,726.1,204.9,726.1,205.1z"/>
			</g>
			<g>
				<path class="st0" d="M159,155.9l5.7,0.7l3.2-0.7l0.6,2.1l0.7-0.7h0.6l1.9,0.7l12.7-1.4l5,1.4c4.6-0.4,7.4-1.1,8.2-2.1l3.8,2.1
					c5.7-0.4,8.9-1.1,9.5-2.1h0.6l1.3,1.4v5.6l-1.3,1.4h-8.9l-7,0.7l-5.7-1.4l-3.8,0.7l-0.7-0.7l-3.1,0.7h-5l-2.5-0.7l-1.9,0.7
					l-1.9-0.7l-1.9,0.7l-5.7-0.7l-14,0.7l-0.6-0.7v-3.5C148.9,159.5,152.2,158.1,159,155.9L159,155.9z"/>
				<path class="st0" d="M247.3,155.8c11.5,0,17.3,1.2,17.3,3.6h1.3c1.6-1.9,5.5-2.8,11.6-2.8c0,1,1.7,2,5.1,2.8
					c4.4-0.5,7.1-1.2,8.3-2.1l0.7,0.7v4.2l-1.3,1.4h-3.9l-9,1.5l-17.9-1.5l-4.5,0.7l-2.6-0.7l-0.6,0.7h-1.3v-0.7L230,165l-5.8-1.5
					l-0.7,0.7l-3.2-0.7l-9,1.5l-2.5-2.1c0-3.8,3.2-5.7,9.6-5.7l12.8-0.7l1.3,1.4h1.3l8.4-1.4l0.6,0.7h0.7l2.5-0.7v1.4h0.7
					L247.3,155.8L247.3,155.8z"/>
				<path class="st0" d="M302.5,155.9l3.9,1.4h6.4l12.2-0.7l3.2,1.4l13.5-1.4l2.5,0.7l3.2-0.7l3.8,1.4h1.9l5.1-1.4l4.5,0.7l5.8-1.4
					l0.7,0.7v5.6l-1.3,1.4l-0.7-0.7h-0.7l-10.8,1.4h-2.5l-2.6,0.7l-6.4-2.1l-4.5,1.4l-7-1.4l-4.5,1.4L323,163l-1.9,1.4l-7.7-0.7
					h-10.2l-3.8-0.7l-3.2,1.4l-1.9-0.7l-3.2,1.4c-2.5-1.1-3.8-2-3.8-2.8v-2.8C287.2,158.3,292.3,157.2,302.5,155.9L302.5,155.9z"/>
				<path class="st0" d="M370.8,155.8h2.6c2.6,0,3.9,0.9,3.9,2.8l5.1-1.4l0.7,0.7l13.5-2.1l3.8,2.1l7.1-2.1l10.9,1.4l2.6-0.7
					l9.6,0.7l2.5-0.7l3.9,1.4h3.9l2.5-2.1l1.9,2.1v4.2c0,1.2-1.1,1.9-3.2,2.1l-3.9-0.7l-18.6,1.4l-9-1.4h-2.5l-5.8,1.4l-10.2-1.4
					l-0.7,0.7h-0.7l-1.9-0.7l-2.5,0.7l-2.5-0.7l-3.2,0.7l-3.2-0.7l-3.9,0.7l-4.5-0.7l-3.2,0.7l-0.7-0.7v-2.1l0.7-0.7
					c0-0.7,1.3-1.2,3.8-1.4C369.5,157,369.9,155.8,370.8,155.8L370.8,155.8z"/>
				<path class="st0" d="M447.2,155.9h0.7l6.2,0.7l-0.6,3.5h0.6l15.8-0.7c0-1.9,0.4-2.8,1.3-2.8h5l1.9,1.4h0.7l4.4-0.7l1.3,1.4
					l3.8-1.4h6.2l3.8-0.7l3.1,0.7l5-1.4h5c2.1,0,4,0.7,5.7,2.1l1.9-1.4l1.2,1.4v4.9l-1.2,1.4l-8.9-0.7l-14.5,1.4l-6.3-1.4l-6.9,1.4
					l-6.3-1.4l-6.3,0.7l-6.3-1.4l-7.5,1.4l-8.2-0.7h-5.7v-4.2c0-0.9,1-1.4,3.1-1.4L447.2,155.9L447.2,155.9z"/>
				<path class="st0" d="M554,155.8c11.5,0,17.3,1.2,17.3,3.6h1.3c1.6-1.9,5.5-2.8,11.6-2.8c0,1,1.7,2,5.2,2.8
					c4.4-0.5,7.2-1.2,8.3-2.1l0.7,0.7v4.2l-1.3,1.4h-3.9l-9,1.5l-17.9-1.5l-4.5,0.7l-2.6-0.7l-0.6,0.7h-1.3v-0.7l-20.5,1.5l-5.8-1.5
					l-0.7,0.7l-3.2-0.7l-9,1.5l-2.5-2.1c0-3.8,3.2-5.7,9.6-5.7l12.8-0.7l1.3,1.4h1.3l8.3-1.4l0.6,0.7h0.7l2.5-0.7v1.4h0.7L554,155.8
					L554,155.8z"/>
				<path class="st0" d="M607.1,155.3h5.1c1.2,0,1.9,1.2,1.9,3.5l0.7-0.7h3.2l1.9,1.4h0.7v-0.7l-0.7-2.1l1.9-1.4c3.4,0,5,0.9,5,2.8
					l4.4-2.1l3.2,1.4l4.5-0.7l6.9,0.7c7,0,11.2-0.7,12.7-2.1h1.3l2.5,0.7l1.9-0.7c0,3.8,1.9,5.6,5.7,5.6l1.3,1.4
					c0,1.1-1.9,1.9-5.7,2.1l-3.2-1.4c-2.5,0.3-3.8,0.8-3.8,1.4l-6.3-0.7h-9.5l-10.1-0.7l-1.9,0.7l-5.7-0.7l-1.9,0.7l-2.5-0.7
					l-5.7,0.7l-3.8-0.7l-8.2,0.7h-1.9c-3.1,0-4.8-0.7-5.1-2.1v-2.8c0-1.1,1.7-1.8,5.1-2.1l5.1,0.7
					C605.8,156,606.2,155.3,607.1,155.3L607.1,155.3z"/>
				<path class="st0" d="M728.1,154.9l5.7,0.7h1.9l1.3,1.4v5c0,0.9-1.7,1.6-5,2.1v-0.7c0-1.1,0.8-1.8,2.5-2.1v-3.5l-9.5,4.2
					c-4.7,0-7,0.7-7,2.1l-7.6-0.7h-5l-3.8,1.4l-5.7-1.4l-11.4,1.4l-1.9-1.4l-4.4,0.7h-0.6l-2.5-0.7l-1.9,0.7c-4.2-0.3-6.4-1-6.4-2.1
					v-2.1l1.3-1.4l0.6,2.1h0.7c1.2-1.9,3.6-2.8,7-2.8V157l6.3,0.7h14.6l8.8-1.4l5.7,0.7L728.1,154.9L728.1,154.9z"/>
			</g>
		</g>
	</g>
</g>
</svg>
